<svg width="54" height="65" viewBox="0 0 54 65" fill="none" xmlns="http://www.w3.org/2000/svg">
<path d="M14.4565 33.4699C16.1169 32.3274 17.9411 31.448 19.8657 30.8623C19.9251 30.836 19.9875 30.8173 20.0515 30.8066C21.1164 30.7808 21.2759 29.9924 21.4334 29.1455C20.7368 28.9311 20.0899 28.578 19.531 28.1072C18.9721 27.6363 18.5125 27.0573 18.1795 26.4042C18.1183 26.2855 17.8611 26.2251 17.6915 26.2156C17.1262 26.2183 16.5663 26.1049 16.0459 25.8824C15.5254 25.6598 15.0554 25.3328 14.6645 24.9212C14.2735 24.5096 13.9697 24.0221 13.7717 23.4883C13.5737 22.9546 13.4856 22.3858 13.5127 21.8166C13.5074 20.1589 13.5127 18.5005 13.5127 16.8537C11.8575 16.3828 11.4368 15.8141 11.4368 14.0906C11.4368 13.6319 11.4328 13.1732 11.4368 12.7145C11.4092 12.1736 11.5855 11.6421 11.9305 11.2267C12.2755 10.8114 12.7635 10.543 13.2967 10.4753C13.4025 10.4423 13.4993 10.3852 13.5796 10.3083C13.6599 10.2315 13.7216 10.137 13.7598 10.0322C14.3323 7.17144 15.8791 4.60245 18.1322 2.76988C20.3854 0.93732 23.2033 -0.0434839 26.0981 -0.00278001C32.0506 0.0386113 36.9307 4.16892 38.1908 10.2304C38.208 10.2904 38.2305 10.3488 38.2581 10.4048C40.0298 10.7847 40.4969 11.3642 40.4969 13.1739C40.4969 13.5453 40.4969 13.9167 40.4969 14.2881C40.4969 15.7951 39.9396 16.4906 38.421 16.813C38.421 18.3824 38.4291 19.9696 38.4156 21.556C38.4228 22.0135 38.3847 22.4706 38.3019 22.9206C38.1155 23.8253 37.6317 24.6401 36.9288 25.2332C36.2259 25.8262 35.345 26.1628 34.4287 26.1884C34.2422 26.1756 34.0564 26.2216 33.897 26.3199C33.7376 26.4183 33.6124 26.5642 33.5389 26.7374C32.8748 27.8988 31.7928 28.7579 30.5172 29.1367C30.5124 29.5465 30.6534 29.9444 30.9145 30.2585C31.1757 30.5725 31.5398 30.7819 31.9409 30.8487C36.896 32.2157 41.1933 35.3436 44.0396 39.6549C44.1601 39.832 44.2833 40.0064 44.5108 40.3334C44.634 39.3156 44.741 38.4518 44.8433 37.586C45.0789 35.5924 45.2842 33.5941 45.5642 31.6066C45.6247 31.3336 45.6033 31.0486 45.5028 30.7879C45.4022 30.5272 45.227 30.3024 44.9995 30.1423C43.5078 28.9759 43.4513 27.3487 43.6714 25.6782C43.7428 25.2002 43.9256 24.7461 44.2048 24.3531C44.484 23.9601 44.8516 23.6394 45.2774 23.4172C45.382 23.3461 45.4716 23.2548 45.5409 23.1486C45.6102 23.0424 45.658 22.9234 45.6813 22.7984C45.7559 22.0067 46.1222 21.272 46.7079 20.7392C47.2936 20.2065 48.0562 19.9144 48.845 19.9207C49.537 19.9105 50.229 19.9058 50.9209 19.9207C51.7328 19.9252 52.5102 20.2526 53.0839 20.8318C53.6575 21.411 53.9811 22.1951 53.9843 23.0135C53.9998 30.8982 54.0159 38.7829 53.9756 46.6676C53.9153 48.2738 53.3848 49.826 52.451 51.1288C51.5172 52.4315 50.2218 53.4266 48.728 53.9885C47.2342 54.5505 45.6088 54.6542 44.0566 54.2866C42.5045 53.9191 41.0949 53.0966 40.0056 51.923C39.8608 51.7649 39.7188 51.6048 39.494 51.3544V65.002H38.7461C31.4804 65.002 24.2145 65.002 16.9484 65.002C14.2229 65.002 12.4539 63.2493 12.4923 60.5141C12.5183 60.2136 12.4536 59.9122 12.3067 59.6494C12.1598 59.3867 11.9375 59.1748 11.6691 59.0416C7.69765 56.4421 5.96705 52.6911 6.29284 47.9521C6.44065 45.9252 6.89978 43.9337 7.65388 42.0488C7.6945 41.9137 7.70698 41.7717 7.69053 41.6316C7.67408 41.4914 7.62908 41.3563 7.55832 41.2345C5.23245 37.6857 2.89198 34.1464 0.536945 30.6166C0.221963 30.1935 0.0376472 29.6862 0.00700009 29.1581C-0.023647 28.63 0.100746 28.1045 0.364638 27.6473C0.689254 27.0331 1.1339 26.4916 1.67181 26.0554C2.79923 25.1448 4.13149 24.5277 5.55123 24.2584C6.97097 23.9891 8.43463 24.0759 9.81327 24.5111C10.4664 24.6798 11.0615 25.0251 11.5342 25.5098C12.0069 25.9944 12.3394 26.6 12.4957 27.2612C13.0705 29.3301 13.7834 31.363 14.4565 33.4699ZM39.4603 43.0171C39.4603 44.1984 39.4523 45.3296 39.4671 46.4614C39.4636 46.7197 39.5123 46.9759 39.6104 47.2146C39.9362 47.9263 40.2681 48.6395 40.6578 49.318C41.1389 50.2296 41.8517 50.9958 42.7232 51.5383C43.5946 52.0808 44.5934 52.38 45.6174 52.4054C46.4306 52.4475 47.2438 52.3219 48.0072 52.0362C48.7705 51.7505 49.468 51.3108 50.0569 50.7439C50.6459 50.1771 51.1138 49.495 51.4322 48.7395C51.7505 47.984 51.9126 47.1709 51.9084 46.3501C51.936 41.5249 51.9158 36.6991 51.9151 31.874C51.9151 31.7498 51.8943 31.6256 51.8828 31.4967H47.6475L45.6773 48.3593L43.631 48.0878C43.7703 46.84 43.9157 45.6539 44.0248 44.4644C44.0478 44.1879 44.0015 43.91 43.8902 43.6563C42.3978 40.3381 40.015 37.5065 37.0108 35.4811C35.24 34.2572 33.2717 33.3526 31.1937 32.8077C31.1765 32.9074 31.1646 33.0079 31.158 33.1089C31.158 39.4628 31.163 45.8168 31.1728 52.1707C31.1908 52.2956 31.2352 52.4152 31.3031 52.5214C31.3709 52.6276 31.4605 52.7179 31.5659 52.7861C32.0833 53.0678 32.513 53.4888 32.807 54.0022C33.1011 54.5155 33.2479 55.1011 33.2312 55.6937C33.2312 56.2833 33.2279 56.873 33.2312 57.4626C33.2627 58.0772 33.1164 58.6877 32.8102 59.22C32.5039 59.7524 32.0508 60.1835 31.506 60.4611C31.362 60.5426 31.1796 60.7163 31.1695 60.856C31.1345 61.5224 31.154 62.1921 31.154 62.8544H37.3979V43.0171H39.4603ZM19.7378 16.7906C19.7378 19.2055 19.7331 21.5594 19.7378 23.9153C19.7092 24.3643 19.7762 24.8143 19.9345 25.235C20.0928 25.6557 20.3386 26.0373 20.6554 26.3543C20.9723 26.6712 21.3527 26.916 21.7713 27.0724C22.1898 27.2287 22.6367 27.2929 23.0819 27.2605C25.0061 27.2651 26.9306 27.2651 28.8553 27.2605C29.3006 27.2917 29.7474 27.2263 30.1656 27.0688C30.5838 26.9114 30.9637 26.6655 31.2798 26.3476C31.5958 26.0298 31.8407 25.6474 31.9979 25.2263C32.1551 24.8051 32.2211 24.3548 32.1913 23.9058C32.1973 21.7216 32.1913 19.538 32.1913 17.3538C32.1913 17.1678 32.167 16.9812 32.1535 16.7926L19.7378 16.7906ZM14.548 42.4769V49.5311C14.548 51.6923 14.5292 51.8205 16.6636 52.1354C18.5069 52.332 20.3601 52.4197 22.2135 52.398C22.4014 52.4027 22.6087 52.1822 22.785 52.039C23.3261 51.5452 23.8942 51.0824 24.4867 50.6528C24.6276 50.5915 24.7462 50.488 24.8265 50.3562C24.9067 50.2244 24.9446 50.0708 24.935 49.9165C24.9202 47.6244 24.9282 45.3329 24.9262 43.0408C24.9262 42.8583 24.9074 42.6758 24.8959 42.479C22.9513 43.1833 16.5741 43.1847 14.5494 42.4742L14.548 42.4769ZM9.30978 43.8598H9.07753C8.84261 45.1986 8.53903 46.5285 8.38354 47.8768C7.78782 53.006 10.901 57.5515 15.8135 58.4784C17.6161 58.8177 19.5157 58.6501 21.3681 58.7078C21.506 58.7017 21.6432 58.6838 21.7781 58.6542V54.456C16.9989 54.9011 12.7104 54.017 9.57432 49.8989L11.284 48.6096L12.3832 49.8839C12.5214 49.4454 12.515 48.9736 12.3651 48.5391C11.3911 46.9479 10.3369 45.4117 9.31109 43.8578L9.30978 43.8598ZM11.2437 30.2509C9.30337 31.8767 6.81415 32.6823 4.29767 32.4989L12.3584 44.689C12.4721 42.7511 12.4216 40.8742 12.497 39.0021C12.5961 38.234 12.7674 37.4772 13.0086 36.7419C13.0517 36.56 13.1688 36.3537 13.1217 36.199C12.5172 34.2319 11.8878 32.273 11.2443 30.2488L11.2437 30.2509ZM13.5383 14.6321H38.3907V12.6161H13.5397L13.5383 14.6321ZM22.8274 2.64627C19.1064 3.60234 16.1635 7.43545 15.899 10.4448H22.8274V2.64627ZM29.1258 2.65372V10.4407H36.0711C35.6632 7.06971 32.3669 3.37909 29.1272 2.65237L29.1258 2.65372ZM47.7633 25.1672C47.3359 25.1672 47.0101 25.1428 46.6863 25.1727C46.5553 25.1733 46.4256 25.2 46.3048 25.2512C46.184 25.3024 46.0744 25.3771 45.9823 25.4711C45.8902 25.5651 45.8174 25.6765 45.768 25.7989C45.7187 25.9213 45.6938 26.0523 45.6948 26.1844C45.6698 26.5988 45.6684 27.0143 45.6908 27.4288C45.7109 27.9079 46.8559 29.3287 47.2962 29.3403C48.8215 29.3722 50.3481 29.3525 51.9091 29.3525C51.9091 27.1967 51.9219 25.1245 51.9017 23.0529C51.9056 22.9149 51.8813 22.7777 51.8301 22.6497C51.7788 22.5217 51.7019 22.4058 51.6041 22.3092C51.5063 22.2127 51.3897 22.1376 51.2617 22.0886C51.1337 22.0397 50.9971 22.018 50.8603 22.0249C50.2343 22.0004 49.6063 22.0106 48.9796 22.0194C48.1396 22.0317 47.7734 22.4123 47.7626 23.2775C47.7586 23.8821 47.7646 24.4887 47.7646 25.1652L47.7633 25.1672ZM28.0408 54.5177C28.0776 54.1834 28.072 53.8457 28.024 53.5128C27.927 53.1803 27.7365 52.649 27.5272 52.6185C26.7856 52.4469 26.0145 52.453 25.2756 52.6361C24.9652 52.756 24.6855 52.9449 24.4573 53.1886C24.2292 53.4324 24.0584 53.7248 23.9576 54.0441C23.8476 55.5948 23.8267 57.1506 23.895 58.7037C26.0416 58.7037 28.1135 58.7193 30.1847 58.6935C30.3216 58.6905 30.4565 58.6591 30.5808 58.6011C30.7051 58.543 30.8161 58.4597 30.907 58.3564C30.9978 58.253 31.0665 58.1318 31.1086 58.0005C31.1508 57.8691 31.1655 57.7303 31.152 57.5929C31.1701 56.9598 31.1674 56.3261 31.152 55.693C31.1696 55.5342 31.1515 55.3734 31.099 55.2226C31.0464 55.0718 30.9608 54.935 30.8485 54.8222C30.7361 54.7094 30.6 54.6237 30.4502 54.5713C30.3005 54.5189 30.1409 54.5013 29.9834 54.5198C29.3634 54.5055 28.7388 54.5157 28.0408 54.5157V54.5177ZM19.0606 36.6957C18.3054 36.6957 17.4505 36.6774 16.5963 36.7005C16.0527 36.7123 15.5355 36.9389 15.156 37.3314C14.7765 37.7239 14.5651 38.251 14.5673 38.7991C14.5695 39.3472 14.7851 39.8725 15.1678 40.2619C15.5504 40.6513 16.0695 40.8736 16.6132 40.881C18.7066 40.9027 20.8 40.9027 22.8934 40.881C23.1644 40.8772 23.432 40.8195 23.6809 40.7113C23.9298 40.6031 24.1551 40.4465 24.3438 40.2504C24.5326 40.0544 24.6812 39.8227 24.781 39.5686C24.8808 39.3146 24.9299 39.0432 24.9256 38.77C24.9247 38.2158 24.7054 37.6845 24.316 37.2932C23.9265 36.9019 23.3988 36.6826 22.849 36.6835C22.2991 36.6844 21.7722 36.9055 21.384 37.298C20.9958 37.6906 20.7782 38.2225 20.7791 38.7768C20.7677 39.1161 20.7791 39.4588 20.7791 39.7946H18.5847L19.0606 36.6957ZM29.0228 50.9398V34.5142C28.4224 35.2721 27.9203 35.9575 27.363 36.5926C27.1324 36.7834 26.9675 37.0428 26.8921 37.3337C26.8167 37.6246 26.8344 37.9322 26.9429 38.2123C27.0162 38.5087 27.0359 38.816 27.0008 39.1195C27.0039 42.6095 27.0039 46.0997 27.0008 49.5901V50.1791L29.0228 50.9398ZM4.69483 30.4368C6.77007 30.3371 8.3297 29.9618 9.62411 28.8653C10.7718 27.8923 10.5921 26.9654 9.18119 26.4836C8.04211 26.1226 6.82419 26.0991 5.67222 26.4157C4.42628 26.6233 3.28709 27.251 2.4412 28.1963C1.88722 28.8823 1.97002 29.4814 2.75825 29.8431C3.38704 30.0944 4.03547 30.2925 4.69685 30.4355L4.69483 30.4368ZM25.9655 35.0109C26.6171 34.1041 27.319 33.2351 28.0677 32.408C28.4567 32.101 28.7134 31.6546 28.7842 31.1617C28.855 30.6688 28.7346 30.1673 28.448 29.7617C28.3911 29.6631 28.3144 29.5776 28.2229 29.5107C28.1313 29.4437 28.0268 29.3968 27.9162 29.3729C26.9443 29.3342 25.9709 29.3545 24.9976 29.3545C23.584 29.3545 23.5706 29.3505 23.1512 30.7394C23.1101 30.8633 23.0941 30.9941 23.104 31.1243C23.114 31.2545 23.1497 31.3814 23.2091 31.4974C24.0821 32.6604 24.9996 33.7895 25.9655 35.0109ZM24.9 60.8506C21.4421 60.6267 17.9998 61.1594 14.6086 60.4211C14.5457 60.7226 14.5508 61.0346 14.6237 61.3338C14.6966 61.6331 14.8353 61.9119 15.0296 62.1498C15.224 62.3877 15.4689 62.5784 15.7463 62.7079C16.0237 62.8373 16.3264 62.9023 16.632 62.8978C18.7061 62.9204 20.7803 62.9204 22.8544 62.8978C23.1227 62.9006 23.3889 62.8496 23.6375 62.7477C23.8861 62.6459 24.1121 62.4953 24.3025 62.3046C24.4928 62.1139 24.6437 61.887 24.7462 61.6371C24.8488 61.3871 24.901 61.1191 24.9 60.8486V60.8506ZM24.9727 2.14685V10.4339H26.9584V2.1455L24.9727 2.14685ZM16.7235 34.5352H22.9264C22.464 33.9503 22.0708 33.4299 21.6474 32.9352C21.5917 32.8661 21.5217 32.8099 21.4423 32.7705C21.363 32.7312 21.2761 32.7096 21.1877 32.7072C19.6145 33.0789 18.1083 33.6957 16.7235 34.5352ZM17.6269 24.0856V19.9465C17.0862 19.9481 16.5681 20.1657 16.1862 20.5515C15.8043 20.9374 15.5897 21.4601 15.5893 22.0052C15.5896 22.5523 15.8036 23.0773 16.1849 23.4666C16.5662 23.8559 17.0842 24.0783 17.6269 24.0856ZM34.3143 19.9465V24.0856C34.8588 24.0856 35.381 23.8676 35.766 23.4795C36.151 23.0913 36.3673 22.5649 36.3673 22.016C36.3673 21.4672 36.151 20.9408 35.766 20.5526C35.381 20.1645 34.8588 19.9465 34.3143 19.9465ZM27.1045 60.8282L26.5424 62.8557H29.033V60.8282H27.1045ZM17.6282 17.7263V16.8116H15.621V18.2915L17.6282 17.7263ZM36.3148 18.2868V16.8055H34.3042V17.7263L36.3148 18.2868Z" fill="#01185C"/>
</svg>
