<svg width="65" height="65" viewBox="0 0 65 65" fill="none" xmlns="http://www.w3.org/2000/svg">
<path d="M0 64.9504V44.063H14.6301V50.2931H18.8124V56.5658H20.8947C20.6885 51.7112 20.4826 46.8615 20.2732 41.9346H19.5339C17.2834 41.9346 15.033 41.9398 12.7825 41.9335C8.97895 41.9227 6.26571 39.2111 6.26256 35.404C6.25649 27.9573 6.25987 20.5106 6.27271 13.0638C6.27393 12.5908 6.1554 12.338 5.72345 12.1086C5.29702 11.8985 4.93287 11.581 4.66694 11.1876C4.401 10.7942 4.24247 10.3384 4.20696 9.86525C4.05708 7.85248 4.10453 5.85141 5.06334 3.98346C5.91813 2.2705 7.32369 0.892784 9.05546 0.0704134C9.16798 0.0235503 9.28881 -0.000214311 9.41074 0.000536028C9.53266 0.00128637 9.65319 0.0265379 9.76512 0.0747822C12.8445 1.65939 14.4732 4.19238 14.6437 7.65176C14.6705 8.19644 14.6504 8.74339 14.6504 9.2893C14.6504 10.6083 14.0726 11.5869 12.917 12.2251C12.4328 12.4928 12.3885 13.0112 12.8396 13.3379C13.6649 13.9266 14.2617 14.7809 14.5298 15.7572C14.6051 15.975 14.7456 16.1646 14.9325 16.3001C17.1285 17.9072 17.4029 20.7423 15.4605 22.6588C15.1762 22.9157 14.9538 23.2336 14.8101 23.5885C14.6664 23.9434 14.6052 24.3262 14.631 24.7081C14.6863 27.2374 14.6507 29.7685 14.6507 32.4005C15.7934 32.3307 16.8932 32.2741 17.9914 32.1968C20.9105 31.9918 23.8284 31.7661 26.7488 31.5791C27.259 31.5465 27.5469 31.4175 27.6283 30.8709C27.7111 30.3156 27.8822 29.7734 28.0245 29.1838C26.4949 28.7071 25.3411 27.8107 24.6079 26.3954C24.5475 26.2785 24.2826 26.2249 24.1088 26.216C21.5713 26.0859 19.9042 24.3512 19.896 21.8086C19.8906 20.1511 19.895 18.4937 19.895 16.8474C18.257 16.4128 17.7977 15.8124 17.7973 14.1492C17.7973 13.6467 17.79 13.1443 17.7994 12.6423C17.8206 11.5094 18.5151 10.6646 19.6257 10.5151C20.014 10.4627 20.1058 10.3189 20.1811 9.96779C20.7653 7.12074 22.3282 4.5668 24.5995 2.74737C26.8708 0.927934 29.7079 -0.042659 32.6204 0.00333485C38.5832 0.0457844 43.6203 4.22313 44.8116 10.1124C44.8328 10.2172 44.8641 10.3196 44.8888 10.4115C46.6798 10.7708 47.165 11.3676 47.165 13.1845C47.165 13.5558 47.165 13.927 47.165 14.2982C47.1627 15.8005 46.6007 16.4951 45.0674 16.8179C45.0674 18.3681 45.0383 19.9345 45.076 21.4996C45.111 22.9551 44.7242 24.2176 43.5985 25.1904C42.8464 25.8369 41.8915 26.2009 40.899 26.2197C40.6967 26.2281 40.3989 26.3234 40.3169 26.4728C39.9673 27.1294 39.4871 27.708 38.9056 28.173C38.324 28.638 37.6535 28.9797 36.935 29.1772C37.1159 29.9091 37.2702 30.6271 37.486 31.3258C37.5279 31.461 37.8024 31.5807 37.9845 31.608C40.6186 32.0008 43.2515 32.4068 45.8924 32.7506C52.9539 33.6695 58.2642 38.7267 59.5434 45.7585C59.6229 46.1038 59.8119 46.4144 60.0822 46.6442C61.8982 48.165 62.8621 50.0824 62.8961 52.4559C62.9054 53.1093 62.8975 53.7629 62.8975 54.4884H64.9886C64.9121 56.1627 65.2879 57.7775 64.3297 59.3039C63.5793 60.4995 63.0311 61.8222 62.3999 63.0919C61.7631 64.3729 60.7365 65.0037 59.3042 64.9993C56.8136 64.9917 54.3228 64.9917 51.8319 64.9993C50.372 65.0049 49.3362 64.3626 48.6918 63.0545C47.9788 61.6068 47.2484 60.1678 46.5235 58.7259C46.4301 58.5405 46.3253 58.361 46.1339 58.0105V64.9499L0 64.9504ZM38.767 16.8235H26.1953C26.1953 19.3587 26.1561 21.8472 26.2095 24.3337C26.2433 25.9148 27.6075 27.2178 29.2036 27.2454C31.3881 27.2833 33.573 27.2833 35.7584 27.2454C37.3547 27.2178 38.7175 25.9178 38.7525 24.3335C38.8073 21.8468 38.767 19.3584 38.767 16.8231V16.8235ZM10.7157 34.8504C11.1897 34.4107 11.6204 33.979 12.0862 33.5891C12.4539 33.2815 12.5692 32.9305 12.565 32.4536C12.5416 29.8333 12.6293 27.2091 12.5232 24.5926C12.4668 23.201 12.7235 22.082 13.9064 21.2667C14.0605 21.1437 14.1914 20.9942 14.293 20.8254C14.5895 20.4115 14.7108 19.8978 14.6308 19.3954C14.5508 18.893 14.276 18.4421 13.8656 18.1401C13.49 17.865 13.0458 17.6831 12.5575 17.4179C12.5575 18.7281 12.682 19.9564 11.7696 20.9374C10.8479 21.9284 9.72538 22.2126 8.4064 21.8701C8.38405 21.9827 8.36884 22.0966 8.36087 22.2111C8.35965 26.7319 8.33828 31.2526 8.3712 35.7731C8.39166 36.845 8.82845 37.8671 9.5895 38.6241C10.3505 39.381 11.3764 39.8135 12.4509 39.8306C13.805 39.8596 15.1603 39.8379 16.515 39.8385C17.711 39.8385 18.9069 39.8385 20.1847 39.8385C20.101 37.9169 20.0205 36.0618 19.9373 34.1495C17.9957 34.2908 16.1678 34.4143 14.3428 34.5698C14.1131 34.6153 13.9038 34.7322 13.745 34.9038C13.2505 35.3865 12.785 35.8996 12.342 36.3641L10.7157 34.8504ZM34.5616 56.5847C34.5834 56.5308 34.5998 56.4748 34.6107 56.4177C34.8166 51.7095 35.0197 47.0011 35.22 42.2927C35.2349 42.1442 35.1956 41.9953 35.1093 41.8734C34.2486 40.9888 33.3713 40.1201 32.4542 39.2021C31.6421 40.0317 30.9099 40.8108 30.14 41.5509C29.996 41.6788 29.8844 41.8388 29.8144 42.018C29.7444 42.1971 29.718 42.3903 29.7373 42.5816C29.8893 45.8728 30.0174 49.1649 30.1575 52.4566C30.2156 53.8253 30.2832 55.1935 30.3475 56.5845L34.5616 56.5847ZM48.1382 56.6331C48.2331 57.063 48.2473 57.4456 48.3993 57.7618C49.0975 59.2147 49.8494 60.6417 50.5501 62.0941C50.8343 62.6829 51.2505 62.914 51.8955 62.909C54.3395 62.8898 56.7835 62.8898 59.2275 62.909C59.8754 62.914 60.284 62.6688 60.5663 62.0827C61.256 60.6502 61.9998 59.244 62.6849 57.8095C62.8481 57.4678 62.8656 57.0565 62.96 56.6338L48.1382 56.6331ZM44.738 41.1072C44.5127 46.313 44.2914 51.4265 44.0685 56.5765H46.1248V54.4897H48.2159C48.2159 53.6999 48.1984 52.981 48.2194 52.2634C48.2804 50.2253 49.0268 48.4604 50.5445 47.1052C51.1048 46.6047 51.1774 46.1923 50.8486 45.6093C50.4967 44.9852 50.2029 44.3124 49.7631 43.7564C48.5153 42.1784 46.8628 41.3046 44.7386 41.1072H44.738ZM56.9617 44.2714C55.7859 39.6756 50.9465 35.0375 44.9569 34.834V38.9999C46.6787 39.1461 48.3258 39.7678 49.7133 40.7954C51.1435 41.8699 52.2428 43.3231 52.8864 44.9899C54.1528 44.0589 55.4875 43.7836 56.9622 44.2714H56.9617ZM19.9251 14.6329H45.0136V12.6166H19.9251V14.6329ZM41.9642 56.5845C42.0868 53.8085 42.2067 51.0523 42.3291 48.2592H37.0718C36.9557 51.0464 36.841 53.8009 36.7249 56.5845H41.9642ZM22.6399 48.2503C22.7625 51.0687 22.8815 53.8229 23.0009 56.5756H28.238C28.1207 53.783 28.0051 51.028 27.8878 48.2503H22.6399ZM9.34613 10.4852C10.0236 10.4852 10.7012 10.4962 11.3782 10.4823C12.1487 10.4664 12.5354 10.0758 12.5514 9.29943C12.5631 8.68802 12.5829 8.07416 12.5405 7.46519C12.3973 5.40805 11.4879 3.763 9.83498 2.52008C9.51772 2.28163 9.28046 2.29141 8.97212 2.52585C8.00319 3.24628 7.24111 4.20818 6.76227 5.31511C6.16853 6.68957 6.21616 8.13285 6.28952 9.56985C6.32051 10.1687 6.77365 10.474 7.37965 10.4821C8.03502 10.491 8.69075 10.4842 9.34613 10.4852ZM22.2773 10.4386H29.3353V2.63171C25.8921 3.50166 22.5823 7.19268 22.2773 10.4386ZM42.6994 10.4643C42.0763 6.4506 38.4359 3.18268 35.6765 2.70194V10.4643H42.6994ZM51.3019 49.4151C50.1048 50.9766 50.2931 52.7342 50.3407 54.4636H60.7894C60.7946 52.7012 61.0133 50.9492 59.7964 49.4151C59.2974 51.5903 58.2579 52.4168 56.0976 52.4173H55.1157C52.8424 52.4175 51.8783 51.6707 51.3019 49.4151ZM32.4817 36.0603C33.4797 34.814 34.42 33.6464 35.3485 32.4697C35.4432 32.3553 35.4895 32.2086 35.4775 32.0608C35.2674 31.1592 35.0311 30.2641 34.8068 29.3817H30.1552C29.935 30.2426 29.7081 31.0804 29.5153 31.9259C29.4772 32.1102 29.5131 32.302 29.6153 32.4601C30.5371 33.6431 31.48 34.8093 32.4817 36.0603ZM10.5038 52.4454V56.558H16.713V52.4454H10.5038ZM2.09464 56.5646H8.30589V52.4523H2.09464V56.5646ZM22.1953 37.6954H27.3207V33.631C25.5851 33.7481 23.9801 33.8489 22.3772 33.9804C22.2985 34.0085 22.2283 34.0563 22.1733 34.1191C22.1183 34.182 22.0803 34.2578 22.063 34.3394C22.0852 35.4461 22.1446 36.5527 22.1948 37.6954H22.1953ZM37.6385 37.6992H42.8329V34.4364L37.6385 33.6999V37.6992ZM6.22386 50.2899V46.1704H2.1139V50.2899H6.22386ZM8.38731 50.2744H12.502V46.1629H8.38731V50.2744ZM33.4911 10.4594V2.16337H31.4704V10.4594H33.4911ZM6.21949 62.8884V58.7545H2.11828V62.8884H6.21949ZM12.5214 58.7456H8.40272V62.8508H12.5218L12.5214 58.7456ZM14.6914 58.7199V62.855H18.7954V58.7199H14.6914ZM20.9744 62.8557H25.0891V58.7409H20.9744V62.8557ZM31.4082 58.7603H27.2725V62.8592H31.4082V58.7603ZM33.5424 62.8608H37.6795V58.7589H33.5431L33.5424 62.8608ZM43.971 62.8725V58.761H39.8594V62.873L43.971 62.8725ZM55.5171 50.321C57.8347 50.4543 57.6914 49.7734 57.6433 48.1409C57.6243 47.602 57.3967 47.0915 57.0083 46.7165C56.6199 46.3415 56.101 46.1312 55.5605 46.1299C55.0201 46.1285 54.5001 46.3362 54.1099 46.7093C53.7197 47.0824 53.4895 47.5918 53.4678 48.1306C53.4221 49.7196 53.2541 50.4535 55.5178 50.321H55.5171ZM8.36104 12.6093C8.36104 14.7337 8.34984 16.7992 8.36787 18.8645C8.364 19.0015 8.38778 19.1379 8.43781 19.2655C8.48784 19.3931 8.56309 19.5094 8.65908 19.6074C8.75507 19.7054 8.86985 19.7831 8.99657 19.836C9.12329 19.8888 9.25938 19.9157 9.39673 19.915C9.98819 19.9212 10.431 19.4814 10.4497 18.8197C10.4706 18.0797 10.4559 17.339 10.456 16.5985C10.456 15.2775 10.456 13.9563 10.456 12.6093H8.36104ZM42.7084 39.8661H37.4286C37.3957 40.5514 37.3638 41.2127 37.3306 41.9033H42.5884C42.628 41.2306 42.666 40.5856 42.7084 39.8661ZM22.3871 41.886H27.639L27.5309 39.8758H22.2817C22.3175 40.561 22.3513 41.2064 22.3871 41.886ZM22.5508 46.0902H27.7087V44.0796H22.5502L22.5508 46.0902ZM37.2434 44.0313V46.1276H42.438V44.0626C42.247 44.0521 42.056 44.0329 41.8648 44.0326C40.3437 44.0301 38.8227 44.0313 37.2434 44.0313ZM24.0687 19.9509C22.7964 20.0226 21.9343 20.9503 21.9977 22.1335C22.022 22.6604 22.2526 23.1567 22.6399 23.5156C23.0272 23.8746 23.5402 24.0676 24.0687 24.0532V19.9509ZM40.9 24.0657C41.1682 24.0693 41.4344 24.0201 41.6835 23.921C41.9326 23.8218 42.1596 23.6747 42.3517 23.4879C42.5437 23.3012 42.697 23.0785 42.8027 22.8326C42.9085 22.5867 42.9646 22.3224 42.9679 22.0549C42.9882 20.902 42.1145 20.0042 40.9 19.9555V24.0657ZM33.9805 37.549L35.3506 38.9302C35.3949 37.9247 35.4404 36.896 35.4858 35.8674L35.349 35.8437L33.9805 37.549ZM30.9953 37.5591L29.5983 35.8229L29.4706 35.8866C29.5202 36.91 29.5697 37.9331 29.6181 38.9339L30.9953 37.5591ZM42.9391 16.8264H40.9016V17.7294L42.9388 18.2933L42.9391 16.8264ZM24.0609 16.809H22.0232V18.2938L24.0606 17.7277L24.0609 16.809Z" fill="#01185C"/>
</svg>
