<svg width="65" height="65" viewBox="0 0 65 65" fill="none" xmlns="http://www.w3.org/2000/svg">
<path d="M0.0136594 65C0.0311594 62.7131 -0.203163 60.454 0.748661 58.3116C2.02476 55.4416 4.14366 53.5576 7.17116 52.6986C7.42763 52.6162 7.66378 52.4807 7.86415 52.3009C6.00653 51.5127 4.77751 50.2488 4.29416 48.2649C3.90128 48.2649 3.51103 48.2775 3.12166 48.2626C1.88476 48.2153 0.94536 47.6535 0.369961 46.5584C-0.195988 45.4813 -0.0871396 44.423 0.52746 43.3785C0.677794 43.1084 0.737238 42.7972 0.697033 42.4908C0.526759 41.4138 0.28456 40.3485 0.0892605 39.2759C-0.285239 37.2181 0.709281 35.0954 2.5809 34.1693C3.18605 33.8698 3.41828 33.4879 3.57018 32.8751C3.80502 31.8552 4.38927 30.9493 5.22201 30.3137C6.05475 29.6782 7.08368 29.353 8.13103 29.3944C8.4329 29.4054 8.73303 29.4643 9.02878 29.5008C9.48238 28.5534 9.44195 28.4 8.4238 27.2453L5.56833 28.9382L4.72536 24.8412C2.70901 26.6693 1.95248 28.8732 2.11016 31.4541H0.0446347C-0.130598 29.6925 0.195936 27.9173 0.986658 26.3328C2.30371 23.7157 4.37378 21.9973 7.2142 21.2252C7.50387 21.1148 7.78533 20.984 8.05647 20.8338C6.00495 20.0511 4.76385 18.7722 4.29135 16.801C3.86102 16.801 3.46886 16.8123 3.07826 16.7992C2.53494 16.7838 2.00479 16.6287 1.53913 16.3488C1.07348 16.0689 0.688093 15.6737 0.420274 15.2014C0.152456 14.7292 0.011276 14.196 0.0104017 13.6533C0.00952735 13.1106 0.148991 12.5769 0.415286 12.1038C0.576537 11.7846 0.640134 11.4251 0.598158 11.07C0.452208 9.94535 0.222083 8.83205 0.0519834 7.71017C-0.116615 6.48637 0.18376 5.24413 0.893032 4.23191C1.6023 3.21969 2.66818 2.51213 3.87748 2.25073C4.36556 2.18217 4.81148 1.93716 5.13065 1.56216C5.4877 1.11501 5.93756 0.750408 6.44926 0.49346C6.96096 0.236511 7.52235 0.0933181 8.0948 0.0737328C10.6892 0.0256851 13.3108 -0.110772 15.8763 0.183105C20.6657 0.731374 23.9122 5.58471 22.8797 10.3056C22.8237 10.5612 22.7675 10.8179 22.6896 11.0672C22.6148 11.2907 22.5849 11.5267 22.6015 11.7617C22.6181 11.9968 22.6809 12.2262 22.7864 12.437C23.6826 14.4169 22.2684 16.6738 20.0975 16.7945C19.6847 16.8174 19.2696 16.7978 18.7974 16.7978C18.3018 18.7283 17.1113 20.0523 15.065 20.8017C15.3961 20.9913 15.5671 21.1361 15.7638 21.1948C20.4188 22.5835 23.0345 26.0627 23.0671 30.9267C23.0681 31.0788 23.0671 31.231 23.0671 31.4349H25.1636V30.6885C25.1636 25.3792 25.1811 20.0696 25.1515 14.7604C25.1447 13.4997 25.648 12.6876 26.8186 12.2455C27.5114 11.9835 28.1765 11.6482 28.8706 11.3894C29.2659 11.2423 29.3701 11.0155 29.366 10.6089C29.3452 8.51231 29.3564 6.41568 29.3564 4.26873H31.4366V10.2677C32.1237 9.97488 32.7348 9.74775 33.3074 9.44653C33.4516 9.3707 33.5371 9.05953 33.5389 8.85563C33.5564 6.86751 33.549 4.8792 33.549 2.8909V2.15359H35.6114V8.46653C36.0559 8.28517 36.4075 8.14732 36.7547 7.99899C37.7571 7.57057 38.7702 7.16435 39.7556 6.69977C40.8266 6.19501 41.8526 6.16182 42.8991 6.8724C43.1441 6.43455 43.3636 6.01802 43.6044 5.61442C46.1263 1.38814 51.0431 -0.734867 55.9301 0.288287C58.253 0.793356 60.3611 2.0071 61.9624 3.7614C63.5638 5.51571 64.579 7.72375 64.8677 10.0797C65.0296 11.4832 64.9764 12.9135 64.9902 14.3318C65.0077 16.1451 64.9946 17.9587 64.9946 19.7722C64.9946 22.4767 64.6024 23.7354 63.0314 26.0053C64.3576 27.5429 65.084 29.3285 64.9801 31.4491H62.9588C62.515 28.0686 61.3231 26.4853 58.8234 25.896C58.5976 26.8606 58.4685 27.8612 58.1195 28.7788C57.768 29.7029 57.198 30.5435 56.7111 31.444C57.1836 31.5139 57.7351 31.563 58.2709 31.6828C63.0895 32.7605 65.902 37.4103 64.6843 42.2907C64.5342 42.8919 64.4946 43.4089 64.758 44.0367C65.5759 45.9857 64.1306 48.1478 62.0133 48.2593C61.6006 48.281 61.1859 48.2624 60.7221 48.2624C60.2278 50.1772 59.0642 51.497 57.0163 52.2522C57.3313 52.4443 57.5027 52.6025 57.7034 52.6617C62.3267 54.0236 64.9918 57.5778 64.9948 62.4025C64.9948 63.2526 64.9948 64.1028 64.9948 65.0004L0.0136594 65ZM46.1735 48.2607C45.7576 48.2607 45.3216 48.2825 44.8885 48.257C42.8034 48.1347 41.371 46.0004 42.151 44.0713C42.3891 43.498 42.4219 42.8603 42.2437 42.2657C41.1164 37.7601 43.4469 33.3711 47.7338 31.9447C48.5474 31.6741 49.4161 31.57 50.3137 31.3774C49.0119 29.8408 48.2726 27.9076 48.2174 25.8958C47.2118 26.0646 46.2866 26.5496 45.5764 27.2801C44.4417 28.4289 43.9741 29.8401 44.0175 31.4447H41.9462C41.8547 29.3395 42.5509 27.5626 43.9267 25.9839C42.2117 23.9639 41.8654 21.5809 41.9186 19.0431C41.9853 15.8556 41.9361 12.6659 41.9336 9.47658C41.9336 8.47841 41.5437 8.22717 40.6164 8.62395C38.4722 9.54088 36.3289 10.4599 34.1866 11.381C31.8846 12.3678 29.5823 13.3538 27.3031 14.3303V31.4353C27.3564 31.4554 27.4116 31.47 27.4678 31.4789C29.6288 31.4828 31.7899 31.4858 33.951 31.488C34.9982 31.4903 36.166 31.2134 37.0592 31.588C37.9746 31.9723 38.6088 33.0107 39.3919 33.7351C39.5457 33.8682 39.6668 34.0348 39.746 34.222C39.8252 34.4092 39.8602 34.612 39.8485 34.8148C39.8321 39.7512 39.8382 44.6875 39.8382 49.6239V50.3903H44.0608V55.973C45.4248 54.3091 47.2897 53.1284 49.3788 52.6061C49.5281 52.5679 49.6462 52.408 49.8067 52.2829C47.3318 50.8864 47.0753 50.6018 46.1735 48.2607ZM37.7419 50.3645V49.5465C37.7419 45.2211 37.702 40.8952 37.7695 36.5709C37.787 35.4718 37.5595 34.6131 36.6546 33.9979C36.3727 33.8057 36.0206 33.6035 35.6994 33.6014C31.7042 33.5747 27.7088 33.584 23.7134 33.584H23.1009V62.9079H29.3561V62.1566C29.3561 59.6662 29.3415 57.1757 29.3735 54.6858C29.3937 54.3331 29.5339 53.9978 29.771 53.7355C30.7276 52.7179 31.7155 51.7298 32.7346 50.7711C33.0003 50.5391 33.3361 50.4026 33.6885 50.3834C35.0147 50.3393 36.3422 50.3645 37.7419 50.3645ZM20.3163 41.9443C20.4771 41.1676 20.6384 40.4001 20.7944 39.6315C20.8553 39.3322 20.9246 39.0324 20.9554 38.7294C21.0766 37.5359 20.4669 36.2648 19.3175 35.9605C18.0953 35.6369 17.725 34.8725 17.5801 33.8036C17.5639 33.6956 17.5402 33.5889 17.5093 33.4842C16.9318 31.4061 14.7618 30.8208 13.2267 32.3335C12.6707 32.8811 12.1319 33.4463 11.5013 34.0887C10.8579 33.4094 10.3015 32.7645 9.6852 32.1843C8.316 30.8936 6.2083 31.4622 5.63868 33.2588C5.49863 33.6494 5.39746 34.0528 5.33663 34.4631C5.2556 35.2083 4.8727 35.5602 4.1545 35.7786C2.79353 36.1925 1.99973 37.2637 2.12713 38.5566C2.23983 39.6981 2.52719 40.8224 2.73509 41.9422H4.15976C4.20858 41.6509 4.24236 41.393 4.29608 41.1385C4.48824 40.166 5.02179 39.294 5.80069 38.6794C6.57959 38.0647 7.55266 37.7479 8.54473 37.7859C8.71973 37.7915 8.97032 37.842 9.05414 37.9629C9.83079 39.0848 10.5787 40.2268 11.3564 41.3951L9.61782 42.5512C9.1 41.776 8.59128 41.0429 8.11545 40.2891C7.91613 39.9733 7.7203 39.9493 7.41773 40.124C7.06728 40.3089 6.77623 40.5888 6.57808 40.9315C6.37994 41.2743 6.28276 41.6659 6.29773 42.0613C6.2937 43.7437 6.28793 45.4262 6.29773 47.1086C6.30945 49.0209 7.6475 50.3491 9.56847 50.3626C10.8351 50.3713 12.1016 50.3669 13.3682 50.3636C15.4632 50.3584 16.7711 49.0627 16.776 46.9811C16.7811 44.8615 16.7772 42.7422 16.7772 40.6227V39.9238H18.8891V41.9443H20.3163ZM20.6255 10.5043C21.9096 6.99785 19.5405 2.77034 15.7768 2.2979C13.304 1.98743 10.7683 2.13751 8.26175 2.16494C7.85027 2.17202 7.44938 2.29637 7.10631 2.52333C6.76325 2.75029 6.4923 3.07041 6.32538 3.44598C6.01231 4.11848 5.5811 4.2399 4.90683 4.23624C4.52251 4.22883 4.14093 4.30229 3.78693 4.45185C3.43293 4.60141 3.11444 4.82371 2.85218 5.10429C2.58992 5.38486 2.38978 5.71743 2.26477 6.08034C2.13976 6.44325 2.09268 6.82838 2.12661 7.21065C2.22303 8.30981 2.46103 9.39674 2.63323 10.473H4.17147C4.47405 7.89398 6.16403 6.27975 8.4994 6.32535C8.61092 6.32407 8.72157 6.34505 8.82486 6.38705C8.92815 6.42906 9.02199 6.49124 9.10087 6.56996C9.86317 7.65776 10.5884 8.77142 11.3584 9.92858L9.61817 11.0843C9.1147 10.3331 8.61473 9.64414 8.1802 8.91678C7.9177 8.47806 7.65922 8.47876 7.2877 8.73141C6.97248 8.93183 6.71517 9.21098 6.54122 9.54121C6.36728 9.87144 6.28274 10.2413 6.29597 10.6142C6.29737 12.2962 6.28723 13.9784 6.2986 15.6602C6.31155 17.5383 7.64698 18.8791 9.5186 18.8967C10.8285 18.9091 12.1385 18.9042 13.4484 18.8981C15.4448 18.889 16.7687 17.5668 16.7755 15.5682C16.7827 13.4492 16.7772 11.3302 16.7772 9.21136V8.46286H18.8968V10.5034L20.6255 10.5043ZM45.469 24.5721C46.5365 24.2248 47.5053 23.9112 48.4734 23.5928C48.7262 23.5272 48.9716 23.4355 49.2056 23.3194C49.8826 22.9249 49.9022 22.2145 49.2789 21.7686C47.6031 20.5693 46.5158 18.9731 46.2544 16.9166C46.124 15.7897 46.0871 14.654 46.1441 13.521C46.2316 11.3103 47.3438 9.7481 49.3466 8.82104C49.5391 8.73193 49.7402 8.66064 49.9504 8.57556C49.7229 7.89415 49.5054 7.24455 49.2654 6.52715L51.3197 6.13194C51.4029 6.3914 51.4562 6.57887 51.5224 6.76093C52.1851 8.59548 53.4474 9.8248 55.3309 10.3077C56.0983 10.5045 56.9288 10.4727 57.7321 10.5074C58.5377 10.533 59.3032 10.8645 59.8724 11.4342C60.4417 12.0039 60.7718 12.769 60.7955 13.5734C60.8175 14.3371 60.8196 15.1025 60.7955 15.8662C60.7165 18.3934 59.6567 20.4128 57.558 21.8271C57.0515 22.1685 57.0482 22.4928 57.3305 22.881C57.5186 23.1407 57.7771 23.3414 58.0756 23.4595C59.1757 23.8521 60.2951 24.1898 61.4634 24.566C62.3917 23.4292 62.8967 22.0063 62.8923 20.5396C62.9063 17.482 62.9 14.4244 62.89 11.3679C62.8801 10.9536 62.8426 10.5403 62.7779 10.1309C62.1263 5.36527 57.7601 1.85185 52.8457 2.13367C48.1089 2.40536 44.1404 6.43682 44.0478 11.1631C43.9852 14.3502 44.0144 17.5404 44.0454 20.7276C44.0641 22.1344 44.5667 23.4919 45.469 24.5727V24.5721ZM52.4165 35.7112C52.4165 36.4142 52.407 37.0658 52.4186 37.7169C52.441 38.98 53.3051 39.8518 54.5653 39.8726C55.4812 39.8876 56.3982 39.8941 57.3138 39.8726C58.7334 39.8377 59.796 40.3968 60.4796 41.663C60.5243 41.7395 60.5849 41.8056 60.6574 41.8569C60.7298 41.9081 60.8124 41.9433 60.8996 41.96C61.4596 41.9949 62.0213 41.974 62.5771 41.974C63.7418 38.138 61.4211 34.2727 57.4803 33.7152C55.7458 33.4706 53.9561 33.5953 52.1916 33.5929C51.1913 33.5913 50.1731 33.5658 49.194 33.7326C45.4613 34.37 43.0367 38.589 44.3826 41.9596H46.1107C46.9064 39.4641 47.2286 39.172 50.3322 38.1188V35.7117L52.4165 35.7112ZM48.2242 44.9208C48.2242 45.6848 48.2128 46.4489 48.2265 47.2126C48.2218 48.0406 48.5463 48.8368 49.1287 49.4263C49.7111 50.0159 50.504 50.3508 51.3334 50.3575C52.7507 50.3816 54.1684 50.3816 55.5868 50.3575C56.4161 50.3531 57.2097 50.0203 57.7935 49.4322C58.3773 48.8441 58.7035 48.0488 58.7005 47.2208C58.7203 45.8896 58.7116 44.5581 58.7032 43.2267C58.6977 42.3673 58.3182 41.9862 57.4684 41.9773C56.5087 41.9677 55.5488 41.9773 54.5889 41.9736C53.9759 41.9821 53.3685 41.857 52.8089 41.607C52.2493 41.357 51.7511 40.9882 51.349 40.5262C51.237 40.4025 51.1068 40.2345 50.964 40.2095C49.6382 39.9776 48.2594 41.1343 48.2282 42.4995C48.2095 43.3058 48.2245 44.1137 48.2247 44.9213L48.2242 44.9208ZM48.1778 14.7844L48.2256 14.7877C48.2256 15.1371 48.2193 15.4857 48.2266 15.8346C48.2495 17.1332 48.7528 18.3775 49.6396 19.3278C50.5264 20.2781 51.734 20.8673 53.0298 20.9818C54.3258 21.1012 55.6191 20.7276 56.6509 19.9357C57.6828 19.1439 58.3771 17.9922 58.5948 16.7112C58.7348 15.9036 58.6925 15.0616 58.7014 14.2351C58.7159 12.8632 58.4491 12.5946 57.0599 12.6119C55.1225 12.6702 53.2322 12.0093 51.7544 10.7569C51.5129 10.5887 51.2174 10.5157 50.9251 10.552C50.3029 10.627 49.7195 10.8938 49.2562 11.3152C48.7928 11.7366 48.4725 12.2916 48.3397 12.9032C48.2081 13.5138 48.2273 14.1564 48.1778 14.7844ZM41.8953 54.5443V52.4623C39.3079 52.4623 36.7594 52.456 34.2109 52.476C34.0032 52.5149 33.8148 52.6226 33.6759 52.7815C33.0475 53.3873 32.4135 53.9908 31.8344 54.6421C31.6167 54.8932 31.4881 55.209 31.4688 55.5405C31.4385 57.8107 31.4513 60.0815 31.4541 62.3521C31.4541 62.5399 31.4777 62.7278 31.4891 62.8986H41.8999V56.6467H33.5973V54.5443H41.8953ZM50.5466 62.9357C50.7216 62.2471 50.8217 61.5666 51.0706 60.9462C51.4648 59.9632 50.9318 59.3602 50.3541 58.7098L47.4915 60.4003C47.2059 59.0007 46.9413 57.7037 46.6711 56.3799C44.8484 57.648 43.6035 60.9107 44.1336 62.9359L50.5466 62.9357ZM8.62837 62.9219C8.78447 62.2887 8.85588 61.6639 9.093 61.1104C9.51825 60.1126 9.11995 59.4041 8.41365 58.7133L5.56815 60.4063C5.28185 59.0127 5.01393 57.709 4.7236 56.2965C2.72231 58.155 1.93078 60.3254 2.13256 62.9219H8.62837ZM56.375 62.903H62.8778C63.0491 60.2997 62.2744 58.129 60.2703 56.3083C59.9819 57.7235 59.7178 59.0173 59.4368 60.3967L56.4343 58.6364C56.1685 59.232 55.7212 59.7645 55.7518 60.267C55.8078 61.1602 56.1545 62.0352 56.3753 62.903H56.375ZM14.5169 58.6276C14.2459 59.2217 13.7921 59.7532 13.8225 60.2545C13.8768 61.149 14.2235 62.0259 14.4473 62.9076H20.924C21.1762 60.3167 20.0587 57.4974 18.3228 56.3954C18.1877 57.0756 18.0603 57.735 17.9254 58.3928C17.7922 59.0393 17.6507 59.6857 17.4979 60.4021L14.5169 58.6276ZM13.9919 29.498C14.0667 29.5029 14.1417 29.5025 14.2165 29.4968C16.7466 29.0794 18.938 30.4362 19.4948 32.9172C19.6957 33.812 20.2387 34.0735 20.9571 34.3499C20.9571 32.8638 21.0271 31.422 20.9396 29.9895C20.8183 27.9697 19.9421 26.2828 18.3472 24.8433L17.5049 28.9389L14.6534 27.2488C13.6811 28.3183 13.6505 28.4233 13.9919 29.498ZM52.0369 23.0255C51.4788 23.7363 50.9886 24.3534 50.5088 24.9778C50.4108 25.0844 50.3483 25.2187 50.3301 25.3622C50.3522 25.9861 50.4066 26.609 50.4509 27.2492H56.4656C56.5153 26.6749 56.5801 26.1367 56.5991 25.597C56.6104 25.3889 56.5559 25.1825 56.4432 25.007C55.9616 24.359 55.4457 23.7363 54.8801 23.026L52.0369 23.0255ZM20.9394 55.8667V48.1791L18.9747 48.2969C18.4397 49.1827 18.0736 50.05 17.4757 50.7057C16.8777 51.3614 16.0491 51.8038 15.2203 52.4143C15.8875 52.6612 16.5963 52.8686 17.2541 53.182C17.9437 53.5047 18.6016 53.8908 19.2195 54.3351C19.8243 54.7768 20.3474 55.3316 20.9394 55.8667ZM55.4258 29.4363H51.5339C52.7915 31.5209 53.8403 31.5897 55.241 29.7244C55.2929 29.6554 55.3353 29.5789 55.4258 29.4363ZM11.5678 21.0003C11.1568 20.9741 10.7443 20.981 10.3344 21.0211C10.157 21.0503 9.96397 21.2816 9.88067 21.4674C9.83622 21.5666 9.96992 21.8158 10.0907 21.9089C11.4907 22.9855 11.4977 22.9864 12.9302 21.9409C13.069 21.8397 13.2372 21.5591 13.1894 21.467C13.0826 21.2549 12.8959 21.0938 12.6702 21.019C12.3043 20.9761 11.935 20.9699 11.5678 21.0003ZM13.2653 53.1874C13.1974 52.6005 12.9073 52.4132 12.3765 52.4536C11.8136 52.4962 11.2482 52.4962 10.6853 52.4536C10.1451 52.4118 9.8714 52.6164 9.81872 53.1927C10.3061 53.5199 10.7998 53.8699 11.3158 54.1831C11.3873 54.2163 11.4653 54.233 11.5441 54.2319C11.6228 54.2308 11.7004 54.212 11.7708 54.1769C12.2853 53.8624 12.7785 53.5138 13.2653 53.1874ZM51.746 53.1895C52.2264 53.5127 52.719 53.8625 53.2335 54.1767C53.3042 54.2115 53.3818 54.23 53.4606 54.2307C53.5393 54.2314 53.6173 54.2144 53.6885 54.1809C54.2055 53.8695 54.7006 53.5217 55.185 53.1993C55.1312 52.6124 54.854 52.4111 54.3154 52.4526C53.7524 52.4944 53.1872 52.4944 52.6242 52.4526C52.0941 52.4146 51.8003 52.5969 51.746 53.1895ZM18.8986 14.7124C19.6233 14.6498 20.4165 14.9514 20.8036 14.147C20.8713 13.9736 20.901 13.7878 20.8906 13.602C20.8802 13.4162 20.83 13.2348 20.7434 13.07C20.3072 12.3776 19.573 12.6332 18.8986 12.639V14.7124ZM4.16588 44.0896C3.48338 44.105 2.73001 43.8349 2.31736 44.5539C2.23465 44.7309 2.19168 44.9238 2.19147 45.1191C2.19126 45.3144 2.23381 45.5075 2.31613 45.6846C2.72738 46.4041 3.48145 46.1366 4.16588 46.1518V44.0896ZM18.9222 44.1185V46.14C20.3765 46.2317 20.9746 45.9216 20.9648 45.1091C20.9552 44.2876 20.3268 43.9771 18.9226 44.1185H18.9222ZM46.0983 44.0729C45.3575 44.1172 44.5562 43.8317 44.1861 44.6517C44.1225 44.8266 44.0972 45.013 44.1119 45.1985C44.1265 45.384 44.1808 45.5642 44.2711 45.7269C44.7209 46.4055 45.4473 46.1403 46.0983 46.1386V44.0729ZM60.8537 44.1253V46.1455C62.3206 46.2207 62.9105 45.909 62.8923 45.0983C62.8745 44.2775 62.2264 43.964 60.8541 44.1253H60.8537ZM4.16623 12.6264C3.48373 12.6414 2.73123 12.3718 2.31806 13.0906C2.23527 13.2676 2.19226 13.4605 2.19201 13.6558C2.19177 13.8511 2.23431 14.0441 2.31666 14.2212C2.72791 14.9409 3.48181 14.6732 4.16623 14.6884V12.6264ZM51.493 55.5673C51.2338 55.4177 50.9879 55.2463 50.758 55.0548C50.1296 54.4243 49.4784 54.7403 48.839 54.9933C48.7747 55.0374 48.7224 55.0967 48.6868 55.1659C48.6511 55.2351 48.6332 55.3121 48.6347 55.3899C48.7165 55.9351 48.8459 56.4732 48.9723 57.0821L51.493 55.5673ZM57.9587 57.0805C58.0865 56.4727 58.2265 55.9689 58.28 55.4556C58.2715 55.3526 58.2382 55.2531 58.1831 55.1656C58.1279 55.078 58.0525 55.0051 57.9631 54.9528C56.9491 54.4915 56.4959 54.6236 55.5119 55.6115L57.9587 57.0805ZM9.56112 24.1054C9.3268 23.9693 9.10528 23.8123 8.89928 23.6363C8.29028 22.9934 7.63 23.2212 6.97428 23.5069C6.84951 23.5612 6.6864 23.7576 6.7018 23.8652C6.78353 24.4341 6.91652 24.9956 7.04392 25.6187L9.56112 24.1054ZM16.0293 25.6168C16.1535 25.0381 16.2479 24.551 16.3646 24.0703C16.4477 23.7277 16.3088 23.6024 16.0001 23.4431C14.9691 22.9112 14.2938 23.4906 13.5478 24.1264L16.0293 25.6168ZM7.0406 57.087L9.56567 55.5655C9.16405 55.293 8.8277 55.0613 8.48785 54.8347C7.88673 54.4328 7.35683 54.8369 6.85038 55.0548C6.73348 55.105 6.7823 55.6195 6.81258 55.9143C6.84968 56.274 6.94785 56.6273 7.0406 57.087ZM13.5425 55.5844L16.0354 57.0796C16.1591 56.4924 16.2489 56.0226 16.3592 55.5575C16.4367 55.2313 16.3429 55.0824 16.0216 54.9142C14.9903 54.3738 14.3033 54.9568 13.5425 55.5837V55.5844ZM10.2853 57.6513C10.7359 58.0383 10.721 58.809 11.5782 58.7749C12.3832 58.743 12.3454 58.0112 12.765 57.6702C11.714 56.7225 11.5153 56.7187 10.2853 57.6506V57.6513ZM54.7156 57.6513C53.5055 56.7216 53.2981 56.7253 52.2373 57.6688C52.6555 58.0119 52.6203 58.7403 53.4236 58.7749C54.2841 58.8116 54.2646 58.0357 54.7156 57.6513ZM10.2667 26.2C10.7546 26.552 10.7096 27.3503 11.5768 27.3119C12.3818 27.2761 12.3447 26.5472 12.765 26.2064C11.7063 25.2586 11.5176 25.2551 10.2667 26.2ZM10.7947 62.9165H12.2757C12.1233 62.305 11.9957 61.7329 11.8295 61.1719C11.7924 61.0468 11.6235 60.9607 11.5153 60.8574C11.4236 60.9547 11.2815 61.0374 11.2488 61.1516C11.0868 61.7134 10.9539 62.2845 10.7947 62.9165ZM52.7229 62.9238H54.206C54.0485 62.2985 53.9127 61.7095 53.7458 61.1293C53.7383 61.0599 53.7054 60.9956 53.6533 60.949C53.6012 60.9024 53.5337 60.8767 53.4638 60.8768C53.3939 60.8769 53.3264 60.9028 53.2745 60.9496C53.2226 60.9964 53.1899 61.0607 53.1826 61.1301C53.0157 61.7102 52.8795 62.299 52.7229 62.9238ZM11.5169 30.9871C11.9989 30.6141 12.1214 29.961 11.7738 29.5348C11.6977 29.4983 11.6136 29.4815 11.5293 29.4861C11.445 29.4907 11.3632 29.5165 11.2915 29.5611C10.9592 30.0284 11.0577 30.5842 11.5169 30.9871Z" fill="#01185C"/>
</svg>
