<svg width="44" height="40" viewBox="0 0 44 40" fill="none" xmlns="http://www.w3.org/2000/svg">
<path fill-rule="evenodd" clip-rule="evenodd" d="M33.7437 4.11504C33.6205 3.99863 33.4741 3.90627 33.313 3.84326C33.1519 3.78024 32.9792 3.7478 32.8047 3.7478C32.6303 3.7478 32.4575 3.78024 32.2964 3.84326C32.1353 3.90627 31.9889 3.99863 31.8657 4.11504L15.9511 19.115C15.8276 19.2311 15.7296 19.3691 15.6628 19.521C15.5959 19.6728 15.5615 19.8356 15.5615 20C15.5615 20.1645 15.5959 20.3273 15.6628 20.4791C15.7296 20.631 15.8276 20.7689 15.9511 20.885L31.8657 35.885C32.1148 36.1197 32.4525 36.2516 32.8047 36.2516C33.1569 36.2516 33.4946 36.1197 33.7437 35.885C33.9927 35.6503 34.1326 35.332 34.1326 35C34.1326 34.6681 33.9927 34.3497 33.7437 34.115L18.7654 20L33.7437 5.88504C33.8672 5.76892 33.9652 5.63098 34.032 5.47912C34.0989 5.32726 34.1333 5.16446 34.1333 5.00004C34.1333 4.83562 34.0989 4.67282 34.032 4.52095C33.9652 4.36909 33.8672 4.23115 33.7437 4.11504Z" fill="#01185C"/>
<path fill-rule="evenodd" clip-rule="evenodd" d="M23.1338 4.11504C23.0106 3.99863 22.8643 3.90627 22.7031 3.84326C22.542 3.78024 22.3693 3.7478 22.1948 3.7478C22.0204 3.7478 21.8477 3.78024 21.6866 3.84326C21.5254 3.90627 21.3791 3.99863 21.2559 4.11504L5.34125 19.115C5.21774 19.2311 5.11975 19.3691 5.05289 19.521C4.98603 19.6728 4.95162 19.8356 4.95162 20C4.95162 20.1645 4.98603 20.3273 5.05289 20.4791C5.11975 20.631 5.21774 20.7689 5.34125 20.885L21.2559 35.885C21.5049 36.1197 21.8427 36.2516 22.1948 36.2516C22.547 36.2516 22.8848 36.1197 23.1338 35.885C23.3828 35.6503 23.5227 35.332 23.5227 35C23.5227 34.6681 23.3828 34.3497 23.1338 34.115L8.15548 20L23.1338 5.88504C23.2573 5.76892 23.3553 5.63098 23.4222 5.47912C23.489 5.32726 23.5234 5.16446 23.5234 5.00004C23.5234 4.83562 23.489 4.67282 23.4222 4.52095C23.3553 4.36909 23.2573 4.23115 23.1338 4.11504Z" fill="#01185C"/>
</svg>
