<svg width="144" height="81" viewBox="0 0 144 81" fill="none" xmlns="http://www.w3.org/2000/svg">
<path d="M52.9727 7.03443H0V13.1424H62.2204V15.1841H0V23.8484H69.7095V0H0V4.99273H52.9727V7.03443Z" fill="#CACACA"/>
<path d="M144 20.0824H92.0396V18.0322H144V13.0137H84.9709V10.972H144V0H74.2905V23.8484H144V20.0824Z" fill="#929292"/>
<path d="M106.855 52.2779V45.6295H43.1162V43.5792H106.855V28.438H37.1455V33.7996H102.437V35.8413H37.1455V52.2779H106.855Z" fill="#01185C"/>
<path d="M134.649 45.3464H144V36.7421H122.888V34.7003H144V28.438H111.436V52.2779H144V47.3881H134.649V45.3464Z" fill="#929292"/>
<path d="M6.15084 64.7855H69.7095V56.8674H0V71.3052H48.0829V73.3469H0V80.7159H69.7095V66.8272H6.15084V64.7855Z" fill="#929292"/>
<path d="M106.709 60.9766H144V56.8674H74.2905V80.7159H144V69.538H86.6008V67.4963H144V63.0183H106.709V60.9766Z" fill="#CACACA"/>
<path d="M9.78816 46.9763H0V52.2779H32.2898V28.438H0V33.894H21.8067V35.9357H0V44.9346H9.78816V46.9763Z" fill="#929292"/>
</svg>
