<svg width="136" height="100" viewBox="0 0 136 100" fill="none" xmlns="http://www.w3.org/2000/svg">
<path d="M41.4925 44.4962L32.332 35.3357L-1.73803e-05 67.6677L9.16047 76.8282L41.4925 44.4962Z" fill="#01185C"/>
<path d="M53.0785 56.0821L43.918 46.9216L11.5859 79.2537L20.7464 88.4142L53.0785 56.0821Z" fill="#01185C"/>
<path d="M64.6644 67.6681L55.5039 58.5076L23.1719 90.8396L32.3324 100L64.6644 67.6681Z" fill="#01185C"/>
<path d="M93.5246 90.5194L102.685 99.6799L135.017 67.3479L125.857 58.1874L93.5246 90.5194Z" fill="#01185C"/>
<path d="M81.9386 78.9338L91.0991 88.0942L123.431 55.7622L114.271 46.6017L81.9386 78.9338Z" fill="#01185C"/>
<path d="M70.3527 67.3481L79.5132 76.5085L111.845 44.1765L102.685 35.016L70.3527 67.3481Z" fill="#01185C"/>
<path d="M90.8434 41.4925L100.004 32.332L67.6719 -1.73803e-05L58.5114 9.16048L90.8434 41.4925Z" fill="#929292"/>
<path d="M79.2575 53.0782L88.418 43.9177L56.0859 11.5857L46.9254 20.7462L79.2575 53.0782Z" fill="#929292"/>
<path d="M67.6715 64.6639L76.832 55.5034L44.5 23.1714L35.3395 32.3319L67.6715 64.6639Z" fill="#929292"/>
</svg>
