<svg width="22" height="33" viewBox="0 0 22 33" fill="none" xmlns="http://www.w3.org/2000/svg">
<path d="M21.9978 31.9885V28.9862C21.9979 28.589 21.9077 28.1973 21.7344 27.8422C21.5611 27.4872 21.3094 27.1785 20.9995 26.941L8.433 17.285C8.31408 17.1935 8.21754 17.0749 8.15104 16.9384C8.08455 16.8019 8.04994 16.6514 8.04994 16.4988C8.04994 16.3462 8.08455 16.1957 8.15104 16.0592C8.21754 15.9227 8.31408 15.804 8.433 15.7126L20.9995 6.05967C21.3095 5.82143 21.5612 5.51229 21.7346 5.15674C21.908 4.8012 21.9984 4.40903 21.9985 4.01137V1.00991C21.9983 0.822952 21.9474 0.639729 21.8517 0.480705C21.756 0.321686 21.6191 0.193108 21.4564 0.109306C21.2937 0.0255013 21.1115 -0.0102386 20.9301 0.00609207C20.7488 0.0224228 20.5754 0.0901833 20.4294 0.201794L0.471518 15.5337C0.325672 15.646 0.207291 15.7917 0.125757 15.9591C0.0442219 16.1266 0.00177765 16.3112 0.00177765 16.4984C0.00177765 16.6856 0.0442219 16.8703 0.125757 17.0377C0.207291 17.2052 0.325672 17.3508 0.471518 17.4631L20.4287 32.795C20.5745 32.9069 20.7478 32.9749 20.9291 32.9914C21.1104 33.0079 21.2926 32.9724 21.4554 32.8887C21.6182 32.805 21.7551 32.6766 21.8509 32.5176C21.9466 32.3586 21.9975 32.1754 21.9978 31.9885Z" fill="#929292"/>
<path d="M20.4287 20.9373L15.9088 17.4623C15.763 17.35 15.6446 17.2043 15.5631 17.0369C15.4815 16.8694 15.4391 16.6848 15.4391 16.4976C15.4391 16.3104 15.4815 16.1257 15.5631 15.9583C15.6446 15.7909 15.763 15.6452 15.9088 15.5329L20.4279 12.0618C20.574 11.9501 20.7474 11.8824 20.9288 11.8661C21.1102 11.8498 21.2925 11.8856 21.4552 11.9695C21.618 12.0534 21.7548 12.1821 21.8505 12.3412C21.9462 12.5003 21.9969 12.6836 21.9971 12.8707V20.1268C21.9971 20.3139 21.9465 20.4972 21.851 20.6565C21.7555 20.8157 21.6188 20.9445 21.4561 21.0286C21.2934 21.1126 21.1112 21.1486 20.9298 21.1325C20.7484 21.1163 20.5749 21.0488 20.4287 20.9373Z" fill="#929292"/>
</svg>
