<svg width="257" height="160" viewBox="0 0 257 160" fill="none" xmlns="http://www.w3.org/2000/svg">
<mask id="mask0_159_5163" style="mask-type:luminance" maskUnits="userSpaceOnUse" x="79" y="0" width="99" height="98">
<path fill-rule="evenodd" clip-rule="evenodd" d="M109.56 38.636L148.252 0H133.847L109.559 24.2532L99.3723 34.4245L89.1862 44.5958V0.00217111H79V69.1509L89.1862 58.9796L99.3723 48.8094L109.56 38.636ZM123.662 87.745L133.848 97.9163H148.253L138.067 87.745L113.628 63.3419L109.561 59.2803L106.43 56.1544L99.3789 63.1954V63.4983L99.2266 63.3473L89.1927 73.372L79.0065 83.5433V97.9163L89.1927 87.745L99.3789 77.5748L106.43 70.5338L109.561 73.6598L123.662 87.745ZM162.658 97.9163H177.063L166.877 87.745L128.034 48.9582L177.064 0H162.659L120.831 41.7663L113.628 48.9582L120.831 56.15L152.472 87.745L162.658 97.9163ZM109.561 87.745V81.7906L103.593 87.7482L99.3746 91.9618V97.9195H109.561V87.745ZM109.561 9.86838V0H99.3746V20.0397L109.561 9.86838Z" fill="white"/>
</mask>
<g mask="url(#mask0_159_5163)">
<path d="M177.063 0H79.002V97.9163H177.063V0Z" fill="#929292"/>
</g>
<path d="M19.449 124.434C19.449 123.529 19.5947 122.755 19.886 122.111C20.1773 121.467 20.5837 120.946 21.105 120.547C21.6417 120.133 22.2703 119.834 22.991 119.65C23.727 119.451 24.532 119.351 25.406 119.351C25.6053 119.351 25.8353 119.359 26.096 119.374C26.3567 119.389 26.6097 119.412 26.855 119.443C27.1157 119.474 27.361 119.512 27.591 119.558C27.821 119.589 28.0203 119.627 28.189 119.673C28.3423 119.704 28.4343 119.757 28.465 119.834C28.511 119.895 28.534 119.987 28.534 120.11V126.573C28.534 127.186 28.6797 127.585 28.971 127.769C29.2623 127.938 29.6533 128.022 30.144 128.022H30.673V130H29.891C29.201 130 28.6183 129.9 28.143 129.701C27.683 129.502 27.3303 129.157 27.085 128.666C26.8243 129.003 26.418 129.249 25.866 129.402C25.3293 129.54 24.739 129.609 24.095 129.609H23.888C22.462 129.609 21.3657 129.218 20.599 128.436C19.8323 127.654 19.449 126.519 19.449 125.032V124.434ZM21.381 124.779C21.381 125.699 21.588 126.42 22.002 126.941C22.416 127.447 23.1213 127.7 24.118 127.7H24.555C24.785 127.7 25.0227 127.685 25.268 127.654C25.5133 127.623 25.7357 127.562 25.935 127.47C26.1343 127.378 26.2953 127.255 26.418 127.102C26.5407 126.933 26.602 126.726 26.602 126.481V121.26C26.2953 121.229 26.027 121.206 25.797 121.191C25.567 121.176 25.3523 121.168 25.153 121.168C24.601 121.168 24.095 121.214 23.635 121.306C23.175 121.398 22.7763 121.567 22.439 121.812C22.117 122.042 21.8563 122.364 21.657 122.778C21.473 123.177 21.381 123.683 21.381 124.296V124.779ZM21.427 115.096C21.427 114.943 21.473 114.82 21.565 114.728C21.6723 114.636 21.8027 114.59 21.956 114.59H22.853C23.0063 114.59 23.129 114.636 23.221 114.728C23.3283 114.82 23.382 114.943 23.382 115.096V116.338C23.382 116.476 23.3283 116.591 23.221 116.683C23.1137 116.775 22.991 116.821 22.853 116.821H21.956C21.8027 116.821 21.6723 116.775 21.565 116.683C21.473 116.591 21.427 116.476 21.427 116.338V115.096ZM25.176 115.096C25.176 114.943 25.2297 114.82 25.337 114.728C25.4597 114.636 25.59 114.59 25.728 114.59H26.625C26.763 114.59 26.8857 114.636 26.993 114.728C27.1003 114.82 27.154 114.943 27.154 115.096V116.338C27.154 116.476 27.1003 116.591 26.993 116.683C26.8857 116.775 26.763 116.821 26.625 116.821H25.728C25.59 116.821 25.4597 116.775 25.337 116.683C25.2297 116.591 25.176 116.476 25.176 116.338V115.096ZM33.014 115.993C33.014 115.84 33.0676 115.717 33.175 115.625C33.2823 115.533 33.405 115.487 33.543 115.487H34.555C34.693 115.487 34.808 115.533 34.9 115.625C35.0073 115.717 35.061 115.84 35.061 115.993V117.235C35.061 117.373 35.0073 117.488 34.9 117.58C34.808 117.672 34.6853 117.718 34.532 117.718H33.543C33.3896 117.718 33.2593 117.672 33.152 117.58C33.06 117.488 33.014 117.373 33.014 117.235V115.993ZM29.748 128.321C29.748 128.229 29.8246 128.16 29.978 128.114C30.1313 128.053 30.3153 128.022 30.53 128.022H32.14C32.5846 128.022 32.8683 127.984 32.991 127.907C33.1136 127.83 33.175 127.593 33.175 127.194C33.175 126.657 33.175 126.151 33.175 125.676C33.175 125.201 33.175 124.725 33.175 124.25C33.175 123.775 33.1673 123.284 33.152 122.778C33.152 122.272 33.1443 121.72 33.129 121.122C33.129 120.999 33.1596 120.9 33.221 120.823C33.2976 120.731 33.3973 120.685 33.52 120.685H34.624C34.762 120.685 34.8693 120.731 34.946 120.823C35.0226 120.9 35.061 120.999 35.061 121.122C35.0763 121.643 35.084 122.08 35.084 122.433C35.0993 122.786 35.107 123.123 35.107 123.445C35.107 123.752 35.107 124.074 35.107 124.411C35.107 124.733 35.107 125.124 35.107 125.584C35.107 126.32 35.0993 127.002 35.084 127.631C35.084 128.26 35.061 128.75 35.015 129.103C34.9843 129.256 34.9306 129.387 34.854 129.494C34.7926 129.601 34.67 129.693 34.486 129.77C34.3633 129.816 34.1946 129.854 33.98 129.885C33.7653 129.9 33.52 129.923 33.244 129.954C32.968 129.969 32.6843 129.985 32.393 130C32.1016 130 31.8256 130 31.565 130H30.53C30.3153 130 30.1313 129.977 29.978 129.931C29.8246 129.87 29.748 129.785 29.748 129.678V128.321ZM39.072 113.164C39.072 113.041 39.1103 112.934 39.187 112.842C39.279 112.75 39.3863 112.704 39.509 112.704H40.636C40.7586 112.704 40.8583 112.75 40.935 112.842C41.0116 112.934 41.05 113.041 41.05 113.164V126.665C41.05 126.972 41.0806 127.217 41.142 127.401C41.2186 127.57 41.3183 127.7 41.441 127.792C41.579 127.884 41.74 127.945 41.924 127.976C42.1233 128.007 42.3456 128.022 42.591 128.022H43.166V130H42.085C41.5943 130 41.165 129.962 40.797 129.885C40.429 129.793 40.1146 129.64 39.854 129.425C39.5933 129.195 39.394 128.896 39.256 128.528C39.1333 128.16 39.072 127.685 39.072 127.102V113.164ZM42.2362 128.321C42.2362 128.229 42.3129 128.16 42.4662 128.114C42.6196 128.053 42.8036 128.022 43.0182 128.022H44.0533C44.2066 128.022 44.3753 128.014 44.5593 127.999C44.7433 127.984 44.9196 127.953 45.0883 127.907C45.2569 127.846 45.3949 127.761 45.5023 127.654C45.6249 127.531 45.6863 127.37 45.6863 127.171V121.145C45.6863 121.022 45.7246 120.923 45.8013 120.846C45.8933 120.754 46.0006 120.708 46.1233 120.708H47.1813C47.3039 120.708 47.4036 120.754 47.4803 120.846C47.5723 120.923 47.6183 121.022 47.6183 121.145V127.47C47.6643 127.593 47.7563 127.692 47.8943 127.769C48.0476 127.83 48.2086 127.884 48.3773 127.93C48.5613 127.961 48.7453 127.984 48.9293 127.999C49.1133 128.014 49.2743 128.022 49.4123 128.022H49.7343V130H49.4583C48.9829 130 48.4693 129.954 47.9173 129.862C47.3806 129.755 46.9359 129.548 46.5833 129.241C46.1999 129.548 45.7399 129.755 45.2033 129.862C44.6819 129.954 44.2066 130 43.7773 130H43.0182C42.8036 130 42.6196 129.977 42.4662 129.931C42.3129 129.87 42.2362 129.785 42.2362 129.678V128.321ZM43.4553 132.645C43.4553 132.492 43.5013 132.369 43.5933 132.277C43.7006 132.185 43.8309 132.139 43.9843 132.139H44.8813C45.0346 132.139 45.1573 132.185 45.2493 132.277C45.3566 132.369 45.4103 132.492 45.4103 132.645V133.887C45.4103 134.01 45.3566 134.117 45.2493 134.209C45.1419 134.316 45.0193 134.37 44.8813 134.37H43.9843C43.8309 134.37 43.7006 134.316 43.5933 134.209C43.5013 134.117 43.4553 134.01 43.4553 133.887V132.645ZM47.2043 132.645C47.2043 132.492 47.2579 132.369 47.3653 132.277C47.4879 132.185 47.6183 132.139 47.7563 132.139H48.6533C48.7913 132.139 48.9139 132.185 49.0213 132.277C49.1286 132.369 49.1823 132.492 49.1823 132.645V133.887C49.1823 134.01 49.1286 134.117 49.0213 134.209C48.9139 134.316 48.7913 134.37 48.6533 134.37H47.7563C47.6183 134.37 47.4879 134.316 47.3653 134.209C47.2579 134.117 47.2043 134.01 47.2043 133.887V132.645ZM48.8173 128.321C48.8173 128.229 48.894 128.16 49.0473 128.114C49.2006 128.053 49.3846 128.022 49.5993 128.022H52.2213V119.926C52.2213 119.803 52.2596 119.696 52.3363 119.604C52.4283 119.512 52.5356 119.466 52.6583 119.466H53.7163C53.839 119.466 53.9386 119.512 54.0153 119.604C54.1073 119.696 54.1533 119.803 54.1533 119.926V120.846C54.552 120.539 54.9966 120.294 55.4873 120.11C55.978 119.911 56.461 119.765 56.9363 119.673C57.4116 119.566 57.8563 119.497 58.2703 119.466C58.6843 119.435 59.0216 119.42 59.2823 119.42C60.2636 119.42 61.13 119.527 61.8813 119.742C62.648 119.957 63.292 120.302 63.8133 120.777C64.3346 121.252 64.7256 121.866 64.9863 122.617C65.2623 123.368 65.4003 124.281 65.4003 125.354V125.699C65.4003 125.868 65.4003 126.067 65.4003 126.297C65.4003 126.512 65.3926 126.726 65.3773 126.941C65.362 127.156 65.339 127.363 65.3083 127.562C65.2776 127.746 65.2393 127.899 65.1933 128.022H67.0563V130H49.5993C49.3846 130 49.2006 129.977 49.0473 129.931C48.894 129.87 48.8173 129.785 48.8173 129.678V128.321ZM54.1533 128.022C54.5366 128.037 54.9276 128.045 55.3263 128.045C55.7403 128.045 56.2693 128.045 56.9133 128.045H62.8703C63.085 128.045 63.2383 127.922 63.3303 127.677C63.4223 127.416 63.4683 126.88 63.4683 126.067V125.653C63.4683 124.81 63.3686 124.112 63.1693 123.56C62.9853 123.008 62.7016 122.571 62.3183 122.249C61.935 121.912 61.452 121.674 60.8693 121.536C60.2866 121.398 59.6043 121.329 58.8223 121.329C58.5923 121.329 58.278 121.352 57.8793 121.398C57.496 121.429 57.082 121.49 56.6373 121.582C56.1926 121.674 55.748 121.804 55.3033 121.973C54.8586 122.126 54.4753 122.333 54.1533 122.594V128.022ZM66.1347 128.321C66.1347 128.229 66.2114 128.16 66.3647 128.114C66.518 128.053 66.702 128.022 66.9167 128.022H68.7567C69.2014 128.022 69.4774 127.984 69.5847 127.907C69.7074 127.83 69.7687 127.593 69.7687 127.194V113.164C69.7687 113.041 69.807 112.942 69.8837 112.865C69.9757 112.773 70.083 112.727 70.2057 112.727H71.3327C71.4554 112.727 71.555 112.773 71.6317 112.865C71.7084 112.942 71.7467 113.041 71.7467 113.164V126.435C71.7467 126.619 71.7467 126.826 71.7467 127.056C71.7467 127.286 71.739 127.524 71.7237 127.769C71.7237 128.014 71.716 128.252 71.7007 128.482C71.6854 128.712 71.6624 128.919 71.6317 129.103C71.601 129.256 71.555 129.387 71.4937 129.494C71.4324 129.601 71.3097 129.693 71.1257 129.77C71.003 129.816 70.8267 129.854 70.5967 129.885C70.3667 129.9 70.1137 129.923 69.8377 129.954C69.5617 129.969 69.2704 129.985 68.9637 130C68.6724 130 68.3964 130 68.1357 130H66.9167C66.702 130 66.518 129.977 66.3647 129.931C66.2114 129.87 66.1347 129.785 66.1347 129.678V128.321ZM75.6608 113.164C75.6608 113.041 75.6992 112.934 75.7758 112.842C75.8678 112.75 75.9752 112.704 76.0978 112.704H77.2248C77.3475 112.704 77.4472 112.75 77.5238 112.842C77.6005 112.934 77.6388 113.041 77.6388 113.164V129.54C77.6388 129.663 77.6005 129.77 77.5238 129.862C77.4472 129.954 77.3475 130 77.2248 130H76.0978C75.9752 130 75.8678 129.954 75.7758 129.862C75.6992 129.77 75.6608 129.663 75.6608 129.54V113.164ZM88.3252 121.306C88.0185 121.275 87.7195 121.252 87.4282 121.237C87.1369 121.222 86.7919 121.214 86.3932 121.214C85.3812 121.214 84.5762 121.498 83.9782 122.065C83.3955 122.632 83.1042 123.445 83.1042 124.503V124.963C83.1042 126.052 83.3342 126.841 83.7942 127.332C84.2542 127.823 85.0362 128.068 86.1402 128.068C86.7382 128.068 87.2519 128.03 87.6812 127.953C88.1105 127.876 88.3252 127.662 88.3252 127.309V121.306ZM81.9772 133.864C81.9772 133.649 82.0999 133.542 82.3452 133.542C82.6059 133.542 82.9355 133.542 83.3342 133.542C83.7329 133.557 84.0549 133.565 84.3002 133.565C84.9135 133.565 85.4655 133.527 85.9562 133.45C86.4469 133.389 86.8609 133.258 87.1982 133.059C87.5509 132.875 87.8192 132.607 88.0032 132.254C88.2025 131.917 88.3022 131.472 88.3022 130.92V129.563C88.1949 129.655 88.0339 129.732 87.8192 129.793C87.6199 129.839 87.3899 129.885 87.1292 129.931C86.8839 129.962 86.6385 129.985 86.3932 130C86.1479 130 85.9332 130 85.7492 130C84.3539 130 83.2422 129.601 82.4142 128.804C81.5862 128.007 81.1722 126.803 81.1722 125.193V124.618C81.1722 123.008 81.6475 121.735 82.5982 120.8C83.5489 119.865 84.8982 119.397 86.6462 119.397C87.2595 119.397 87.8499 119.428 88.4172 119.489C88.9999 119.535 89.4905 119.619 89.8892 119.742C90.0425 119.788 90.1422 119.842 90.1882 119.903C90.2342 119.949 90.2572 120.033 90.2572 120.156V130.575C90.2572 131.526 90.1192 132.308 89.8432 132.921C89.5672 133.534 89.1839 134.017 88.6932 134.37C88.2025 134.738 87.6199 134.991 86.9452 135.129C86.2705 135.282 85.5269 135.359 84.7142 135.359C84.5609 135.359 84.3615 135.351 84.1162 135.336C83.8862 135.336 83.6485 135.328 83.4032 135.313C83.1732 135.313 82.9585 135.305 82.7592 135.29C82.5599 135.275 82.4219 135.259 82.3452 135.244C82.1919 135.213 82.0922 135.167 82.0462 135.106C82.0002 135.06 81.9772 134.983 81.9772 134.876V133.864ZM100.679 123.652C100.955 123.652 101.07 123.813 101.024 124.135C100.994 124.488 100.963 124.856 100.932 125.239C100.902 125.607 100.886 125.921 100.886 126.182C100.886 126.979 100.94 127.731 101.047 128.436C101.155 129.141 101.385 129.755 101.737 130.276C102.105 130.797 102.634 131.204 103.324 131.495C104.014 131.802 104.95 131.955 106.13 131.955C106.452 131.955 106.79 131.947 107.142 131.932C107.51 131.917 107.855 131.871 108.177 131.794C108.193 131.365 108.2 130.989 108.2 130.667C108.216 130.345 108.223 130.038 108.223 129.747C108.223 129.456 108.223 129.172 108.223 128.896C108.223 128.62 108.223 128.321 108.223 127.999V113.164C108.223 113.041 108.262 112.942 108.338 112.865C108.415 112.773 108.515 112.727 108.637 112.727H109.787C109.91 112.727 110.01 112.773 110.086 112.865C110.163 112.942 110.201 113.041 110.201 113.164V128.022H112.317V130H110.201C110.201 130.23 110.194 130.483 110.178 130.759C110.178 131.05 110.171 131.334 110.155 131.61C110.155 131.901 110.148 132.177 110.132 132.438C110.132 132.699 110.125 132.921 110.109 133.105C110.094 133.258 110.048 133.366 109.971 133.427C109.895 133.488 109.78 133.542 109.626 133.588C109.09 133.711 108.53 133.795 107.947 133.841C107.38 133.902 106.759 133.933 106.084 133.933C104.735 133.933 103.608 133.772 102.703 133.45C101.799 133.143 101.07 132.691 100.518 132.093C99.9816 131.495 99.5983 130.767 99.3683 129.908C99.1383 129.049 99.0233 128.076 99.0233 126.987C99.0233 126.834 99.0233 126.642 99.0233 126.412C99.0386 126.167 99.0539 125.914 99.0693 125.653C99.0999 125.377 99.1306 125.109 99.1613 124.848C99.1919 124.572 99.2303 124.319 99.2763 124.089C99.3223 123.798 99.4603 123.652 99.6903 123.652H100.679ZM111.393 128.321C111.393 128.229 111.47 128.16 111.623 128.114C111.777 128.053 111.961 128.022 112.175 128.022H113.21C113.364 128.022 113.532 128.014 113.716 127.999C113.9 127.984 114.077 127.953 114.245 127.907C114.414 127.846 114.552 127.761 114.659 127.654C114.782 127.531 114.843 127.37 114.843 127.171V121.145C114.843 121.022 114.882 120.923 114.958 120.846C115.05 120.754 115.158 120.708 115.28 120.708H116.338C116.461 120.708 116.561 120.754 116.637 120.846C116.729 120.923 116.775 121.022 116.775 121.145V127.47C116.821 127.593 116.913 127.692 117.051 127.769C117.205 127.83 117.366 127.884 117.534 127.93C117.718 127.961 117.902 127.984 118.086 127.999C118.27 128.014 118.431 128.022 118.569 128.022H118.891V130H118.615C118.14 130 117.626 129.954 117.074 129.862C116.538 129.755 116.093 129.548 115.74 129.241C115.357 129.548 114.897 129.755 114.36 129.862C113.839 129.954 113.364 130 112.934 130H112.175C111.961 130 111.777 129.977 111.623 129.931C111.47 129.87 111.393 129.785 111.393 129.678V128.321ZM112.612 132.645C112.612 132.492 112.658 132.369 112.75 132.277C112.858 132.185 112.988 132.139 113.141 132.139H114.038C114.192 132.139 114.314 132.185 114.406 132.277C114.514 132.369 114.567 132.492 114.567 132.645V133.887C114.567 134.01 114.514 134.117 114.406 134.209C114.299 134.316 114.176 134.37 114.038 134.37H113.141C112.988 134.37 112.858 134.316 112.75 134.209C112.658 134.117 112.612 134.01 112.612 133.887V132.645ZM116.361 132.645C116.361 132.492 116.415 132.369 116.522 132.277C116.645 132.185 116.775 132.139 116.913 132.139H117.81C117.948 132.139 118.071 132.185 118.178 132.277C118.286 132.369 118.339 132.492 118.339 132.645V133.887C118.339 134.01 118.286 134.117 118.178 134.209C118.071 134.316 117.948 134.37 117.81 134.37H116.913C116.775 134.37 116.645 134.316 116.522 134.209C116.415 134.117 116.361 134.01 116.361 133.887V132.645ZM124.415 115.05C124.415 114.897 124.468 114.774 124.576 114.682C124.683 114.59 124.806 114.544 124.944 114.544H125.956C126.094 114.544 126.209 114.59 126.301 114.682C126.408 114.774 126.462 114.897 126.462 115.05V116.292C126.462 116.43 126.408 116.545 126.301 116.637C126.209 116.729 126.086 116.775 125.933 116.775H124.944C124.79 116.775 124.66 116.729 124.553 116.637C124.461 116.545 124.415 116.43 124.415 116.292V115.05ZM117.975 128.321C117.975 128.229 118.051 128.16 118.205 128.114C118.358 128.053 118.542 128.022 118.757 128.022H122.46L120.298 122.502C120.267 122.456 120.244 122.395 120.229 122.318C120.229 122.241 120.229 122.172 120.229 122.111L120.252 121.444C120.267 121.245 120.397 121.045 120.643 120.846C120.903 120.616 121.21 120.409 121.563 120.225C121.931 120.026 122.329 119.865 122.759 119.742C123.188 119.604 123.633 119.497 124.093 119.42C124.553 119.343 125.013 119.305 125.473 119.305C126.224 119.305 126.914 119.389 127.543 119.558C128.187 119.727 128.739 119.995 129.199 120.363C129.659 120.716 130.011 121.176 130.257 121.743C130.517 122.31 130.648 122.985 130.648 123.767V124.204C130.648 124.572 130.609 124.948 130.533 125.331C130.456 125.714 130.349 126.082 130.211 126.435C130.073 126.772 129.904 127.087 129.705 127.378C129.521 127.654 129.314 127.869 129.084 128.022H131.982V130H118.757C118.542 130 118.358 129.977 118.205 129.931C118.051 129.87 117.975 129.785 117.975 129.678V128.321ZM126.186 128.045C126.983 127.861 127.604 127.416 128.049 126.711C128.509 126.006 128.739 125.185 128.739 124.25V123.997C128.739 122.985 128.447 122.257 127.865 121.812C127.282 121.352 126.485 121.122 125.473 121.122C125.074 121.122 124.56 121.176 123.932 121.283C123.303 121.39 122.705 121.636 122.138 122.019L124.484 128.045H126.186ZM137.946 116.66C137.946 116.507 137.992 116.384 138.084 116.292C138.192 116.185 138.322 116.131 138.475 116.131H139.372C139.526 116.131 139.648 116.185 139.74 116.292C139.848 116.384 139.901 116.507 139.901 116.66V117.81C139.901 117.948 139.848 118.063 139.74 118.155C139.633 118.247 139.51 118.293 139.372 118.293H138.475C138.322 118.293 138.192 118.247 138.084 118.155C137.992 118.063 137.946 117.948 137.946 117.81V116.66ZM141.695 116.66C141.695 116.507 141.749 116.384 141.856 116.292C141.979 116.185 142.109 116.131 142.247 116.131H143.144C143.282 116.131 143.405 116.185 143.512 116.292C143.62 116.384 143.673 116.507 143.673 116.66V117.81C143.673 117.948 143.62 118.063 143.512 118.155C143.405 118.247 143.282 118.293 143.144 118.293H142.247C142.109 118.293 141.979 118.247 141.856 118.155C141.749 118.063 141.695 117.948 141.695 117.81V116.66ZM139.878 113.808C139.878 113.67 139.932 113.555 140.039 113.463C140.147 113.371 140.269 113.325 140.407 113.325H141.258C141.396 113.325 141.519 113.371 141.626 113.463C141.734 113.555 141.787 113.67 141.787 113.808V114.843C141.787 114.996 141.726 115.119 141.603 115.211C141.496 115.288 141.373 115.326 141.235 115.326H140.384C140.246 115.326 140.124 115.288 140.016 115.211C139.924 115.119 139.878 114.996 139.878 114.843V113.808ZM131.069 128.321C131.069 128.229 131.146 128.16 131.299 128.114C131.453 128.053 131.637 128.022 131.851 128.022H132.725C132.879 128.022 133.047 128.014 133.231 127.999C133.415 127.984 133.584 127.953 133.737 127.907C133.906 127.846 134.044 127.761 134.151 127.654C134.274 127.531 134.335 127.37 134.335 127.171V122.203C134.335 122.08 134.374 121.973 134.45 121.881C134.527 121.789 134.627 121.743 134.749 121.743H135.807C135.93 121.743 136.03 121.789 136.106 121.881C136.183 121.973 136.221 122.08 136.221 122.203V127.516C136.267 127.639 136.359 127.738 136.497 127.815C136.651 127.876 136.812 127.93 136.98 127.976C137.164 128.007 137.348 128.03 137.532 128.045C137.716 128.06 137.877 128.068 138.015 128.068H138.498C138.636 128.068 138.79 128.06 138.958 128.045C139.142 128.014 139.311 127.976 139.464 127.93C139.618 127.869 139.748 127.784 139.855 127.677C139.963 127.57 140.016 127.424 140.016 127.24V121.421C140.016 121.298 140.055 121.199 140.131 121.122C140.223 121.03 140.331 120.984 140.453 120.984H141.511C141.634 120.984 141.734 121.03 141.81 121.122C141.887 121.199 141.925 121.298 141.925 121.421V127.516C142.017 127.761 142.247 127.915 142.615 127.976C142.983 128.037 143.367 128.068 143.765 128.068H144.064C144.202 128.068 144.363 128.06 144.547 128.045C144.747 128.03 144.931 127.999 145.099 127.953C145.268 127.892 145.406 127.807 145.513 127.7C145.636 127.577 145.697 127.424 145.697 127.24V120.547C145.697 120.424 145.736 120.325 145.812 120.248C145.904 120.156 146.012 120.11 146.134 120.11H147.215C147.338 120.11 147.438 120.156 147.514 120.248C147.591 120.325 147.629 120.424 147.629 120.547V127.47C147.675 127.593 147.775 127.692 147.928 127.769C148.082 127.83 148.25 127.884 148.434 127.93C148.618 127.961 148.802 127.984 148.986 127.999C149.17 128.014 149.331 128.022 149.469 128.022H149.906V130H149.515C149.101 130 148.626 129.954 148.089 129.862C147.553 129.755 147.085 129.548 146.686 129.241C146.334 129.548 145.912 129.755 145.421 129.862C144.931 129.954 144.463 130 144.018 130H143.65C143.114 130 142.631 129.954 142.201 129.862C141.787 129.755 141.373 129.548 140.959 129.241C140.346 129.747 139.457 130 138.291 130H137.9C137.502 130 137.057 129.954 136.566 129.862C136.091 129.755 135.677 129.548 135.324 129.241C135.14 129.41 134.926 129.54 134.68 129.632C134.45 129.724 134.213 129.801 133.967 129.862C133.722 129.923 133.477 129.962 133.231 129.977C133.001 129.992 132.787 130 132.587 130H131.851C131.637 130 131.453 129.977 131.299 129.931C131.146 129.87 131.069 129.785 131.069 129.678V128.321ZM148.993 128.321C148.993 128.229 149.07 128.16 149.223 128.114C149.376 128.053 149.56 128.022 149.775 128.022H150.81C150.963 128.022 151.132 128.014 151.316 127.999C151.5 127.984 151.676 127.953 151.845 127.907C152.014 127.846 152.152 127.761 152.259 127.654C152.382 127.531 152.443 127.37 152.443 127.171V121.145C152.443 121.022 152.481 120.923 152.558 120.846C152.65 120.754 152.757 120.708 152.88 120.708H153.938C154.061 120.708 154.16 120.754 154.237 120.846C154.329 120.923 154.375 121.022 154.375 121.145V127.47C154.421 127.593 154.513 127.692 154.651 127.769C154.804 127.83 154.965 127.884 155.134 127.93C155.318 127.961 155.502 127.984 155.686 127.999C155.87 128.014 156.031 128.022 156.169 128.022H156.491V130H156.215C155.74 130 155.226 129.954 154.674 129.862C154.137 129.755 153.693 129.548 153.34 129.241C152.957 129.548 152.497 129.755 151.96 129.862C151.439 129.954 150.963 130 150.534 130H149.775C149.56 130 149.376 129.977 149.223 129.931C149.07 129.87 148.993 129.785 148.993 129.678V128.321ZM150.488 115.993C150.488 115.84 150.534 115.717 150.626 115.625C150.733 115.533 150.864 115.487 151.017 115.487H151.914C152.067 115.487 152.19 115.533 152.282 115.625C152.389 115.717 152.443 115.84 152.443 115.993V117.235C152.443 117.373 152.389 117.488 152.282 117.58C152.175 117.672 152.052 117.718 151.914 117.718H151.017C150.864 117.718 150.733 117.672 150.626 117.58C150.534 117.488 150.488 117.373 150.488 117.235V115.993ZM154.237 115.993C154.237 115.84 154.291 115.717 154.398 115.625C154.521 115.533 154.651 115.487 154.789 115.487H155.686C155.824 115.487 155.947 115.533 156.054 115.625C156.161 115.717 156.215 115.84 156.215 115.993V117.235C156.215 117.373 156.161 117.488 156.054 117.58C155.947 117.672 155.824 117.718 155.686 117.718H154.789C154.651 117.718 154.521 117.672 154.398 117.58C154.291 117.488 154.237 117.373 154.237 117.235V115.993ZM155.574 128.321C155.574 128.229 155.651 128.16 155.804 128.114C155.957 128.053 156.141 128.022 156.356 128.022H157.575C157.728 128.022 157.897 128.014 158.081 127.999C158.265 127.984 158.441 127.953 158.61 127.907C158.779 127.846 158.917 127.761 159.024 127.654C159.147 127.531 159.208 127.37 159.208 127.171V113.164C159.208 113.041 159.246 112.942 159.323 112.865C159.415 112.773 159.522 112.727 159.645 112.727H160.772C160.895 112.727 160.994 112.773 161.071 112.865C161.148 112.942 161.186 113.041 161.186 113.164V127.47C161.232 127.593 161.324 127.692 161.462 127.769C161.615 127.83 161.776 127.884 161.945 127.93C162.129 127.961 162.313 127.984 162.497 127.999C162.681 128.014 162.842 128.022 162.98 128.022H163.302V130H163.026C162.796 130 162.551 129.992 162.29 129.977C162.029 129.946 161.769 129.908 161.508 129.862C161.263 129.801 161.017 129.724 160.772 129.632C160.542 129.525 160.343 129.394 160.174 129.241C159.791 129.548 159.331 129.755 158.794 129.862C158.273 129.954 157.797 130 157.368 130H156.356C156.141 130 155.957 129.977 155.804 129.931C155.651 129.87 155.574 129.785 155.574 129.678V128.321ZM162.38 128.321C162.38 128.229 162.456 128.16 162.61 128.114C162.763 128.053 162.947 128.022 163.162 128.022H165.002C165.446 128.022 165.722 127.984 165.83 127.907C165.952 127.83 166.014 127.593 166.014 127.194V113.164C166.014 113.041 166.052 112.942 166.129 112.865C166.221 112.773 166.328 112.727 166.451 112.727H167.578C167.7 112.727 167.8 112.773 167.877 112.865C167.953 112.942 167.992 113.041 167.992 113.164V126.435C167.992 126.619 167.992 126.826 167.992 127.056C167.992 127.286 167.984 127.524 167.969 127.769C167.969 128.014 167.961 128.252 167.946 128.482C167.93 128.712 167.907 128.919 167.877 129.103C167.846 129.256 167.8 129.387 167.739 129.494C167.677 129.601 167.555 129.693 167.371 129.77C167.248 129.816 167.072 129.854 166.842 129.885C166.612 129.9 166.359 129.923 166.083 129.954C165.807 129.969 165.515 129.985 165.209 130C164.917 130 164.641 130 164.381 130H163.162C162.947 130 162.763 129.977 162.61 129.931C162.456 129.87 162.38 129.785 162.38 129.678V128.321ZM189.181 128.022C188.874 127.685 188.613 127.24 188.399 126.688C188.199 126.121 188.1 125.446 188.1 124.664V124.181C188.1 122.663 188.575 121.475 189.526 120.616C190.476 119.742 191.78 119.305 193.436 119.305C194.064 119.305 194.685 119.336 195.299 119.397C195.912 119.443 196.433 119.527 196.863 119.65C197.001 119.681 197.093 119.727 197.139 119.788C197.185 119.849 197.208 119.941 197.208 120.064V128.022H199.186V130H184.259C182.787 130 181.568 129.87 180.602 129.609C179.636 129.333 178.869 128.934 178.302 128.413C177.75 127.892 177.359 127.255 177.129 126.504C176.899 125.737 176.784 124.863 176.784 123.882C176.784 123.56 176.791 123.23 176.807 122.893C176.837 122.54 176.899 122.149 176.991 121.72C177.037 121.413 177.182 121.26 177.428 121.26H178.394C178.67 121.26 178.785 121.413 178.739 121.72C178.708 122.073 178.685 122.372 178.67 122.617C178.67 122.862 178.67 123.115 178.67 123.376C178.67 124.112 178.739 124.771 178.877 125.354C179.015 125.921 179.291 126.404 179.705 126.803C180.119 127.202 180.694 127.508 181.43 127.723C182.181 127.922 183.162 128.022 184.374 128.022H189.181ZM195.276 128.068V121.237C194.969 121.191 194.655 121.16 194.333 121.145C194.026 121.13 193.673 121.122 193.275 121.122C192.217 121.122 191.412 121.383 190.86 121.904C190.308 122.41 190.032 123.184 190.032 124.227V124.71C190.032 125.799 190.269 126.634 190.745 127.217C191.235 127.784 192.002 128.068 193.045 128.068H195.276ZM192.01 115.05C192.01 114.897 192.063 114.774 192.171 114.682C192.278 114.59 192.401 114.544 192.539 114.544H193.551C193.689 114.544 193.804 114.59 193.896 114.682C194.003 114.774 194.057 114.897 194.057 115.05V116.292C194.057 116.43 194.003 116.545 193.896 116.637C193.804 116.729 193.681 116.775 193.528 116.775H192.539C192.385 116.775 192.255 116.729 192.148 116.637C192.056 116.545 192.01 116.43 192.01 116.292V115.05ZM201.072 115.336C200.566 115.336 200.221 115.19 200.037 114.899C199.853 114.608 199.761 114.224 199.761 113.749C199.761 113.626 199.761 113.519 199.761 113.427C199.761 113.32 199.769 113.205 199.784 113.082C199.815 112.867 199.915 112.76 200.083 112.76H200.359C200.574 112.76 200.666 112.867 200.635 113.082C200.62 113.235 200.612 113.366 200.612 113.473C200.612 113.58 200.612 113.695 200.612 113.818C200.612 114.309 200.812 114.554 201.21 114.554H201.279C201.371 114.554 201.494 114.523 201.647 114.462C201.801 114.385 201.877 114.217 201.877 113.956V113.105C201.877 113.028 201.908 112.959 201.969 112.898C202.015 112.821 202.084 112.783 202.176 112.783H202.452C202.544 112.783 202.613 112.821 202.659 112.898C202.721 112.959 202.751 113.028 202.751 113.105V113.956C202.751 114.217 202.828 114.385 202.981 114.462C203.135 114.523 203.25 114.554 203.326 114.554H203.418C203.587 114.554 203.725 114.5 203.832 114.393C203.955 114.27 204.016 114.071 204.016 113.795C204.016 113.672 204.016 113.557 204.016 113.45C204.016 113.343 204.009 113.212 203.993 113.059C203.978 112.982 203.993 112.913 204.039 112.852C204.101 112.775 204.177 112.737 204.269 112.737H204.545C204.714 112.737 204.814 112.844 204.844 113.059C204.86 113.197 204.867 113.32 204.867 113.427C204.867 113.519 204.867 113.626 204.867 113.749C204.867 114.224 204.76 114.608 204.545 114.899C204.346 115.19 203.986 115.336 203.464 115.336H203.372C203.173 115.336 202.981 115.305 202.797 115.244C202.613 115.167 202.468 115.045 202.36 114.876H202.291C202.169 115.045 202.008 115.167 201.808 115.244C201.609 115.305 201.402 115.336 201.187 115.336H201.072ZM198.272 128.321C198.272 128.229 198.349 128.16 198.502 128.114C198.656 128.053 198.84 128.022 199.054 128.022H200.664C201.109 128.022 201.393 127.984 201.515 127.907C201.638 127.83 201.699 127.593 201.699 127.194C201.699 126.657 201.699 126.151 201.699 125.676C201.699 125.201 201.699 124.725 201.699 124.25C201.699 123.775 201.692 123.284 201.676 122.778C201.676 122.272 201.669 121.72 201.653 121.122C201.653 120.999 201.684 120.9 201.745 120.823C201.822 120.731 201.922 120.685 202.044 120.685H203.148C203.286 120.685 203.394 120.731 203.47 120.823C203.547 120.9 203.585 120.999 203.585 121.122C203.601 121.643 203.608 122.08 203.608 122.433C203.624 122.786 203.631 123.123 203.631 123.445C203.631 123.752 203.631 124.074 203.631 124.411C203.631 124.733 203.631 125.124 203.631 125.584C203.631 126.32 203.624 127.002 203.608 127.631C203.608 128.26 203.585 128.75 203.539 129.103C203.509 129.256 203.455 129.387 203.378 129.494C203.317 129.601 203.194 129.693 203.01 129.77C202.888 129.816 202.719 129.854 202.504 129.885C202.29 129.9 202.044 129.923 201.768 129.954C201.492 129.969 201.209 129.985 200.917 130C200.626 130 200.35 130 200.089 130H199.054C198.84 130 198.656 129.977 198.502 129.931C198.349 129.87 198.272 129.785 198.272 129.678V128.321ZM198.479 132.645C198.479 132.492 198.533 132.369 198.64 132.277C198.732 132.185 198.847 132.139 198.985 132.139H199.813C199.967 132.139 200.097 132.185 200.204 132.277C200.312 132.369 200.365 132.492 200.365 132.645V133.887C200.365 134.01 200.312 134.117 200.204 134.209C200.097 134.316 199.967 134.37 199.813 134.37H198.985C198.847 134.37 198.732 134.316 198.64 134.209C198.533 134.117 198.479 134.01 198.479 133.887V132.645ZM202.067 132.645C202.067 132.492 202.121 132.369 202.228 132.277C202.351 132.185 202.481 132.139 202.619 132.139H203.447C203.601 132.139 203.723 132.185 203.815 132.277C203.923 132.369 203.976 132.492 203.976 132.645V133.887C203.976 134.01 203.923 134.117 203.815 134.209C203.723 134.316 203.601 134.37 203.447 134.37H202.619C202.481 134.37 202.351 134.316 202.228 134.209C202.121 134.117 202.067 134.01 202.067 133.887V132.645ZM205.665 133.933C205.665 133.703 205.803 133.588 206.079 133.588H206.332C206.67 133.588 206.961 133.573 207.206 133.542C207.467 133.511 207.674 133.442 207.827 133.335C207.996 133.228 208.119 133.059 208.195 132.829C208.287 132.614 208.333 132.315 208.333 131.932V121.145C208.333 121.022 208.372 120.923 208.448 120.846C208.525 120.754 208.625 120.708 208.747 120.708H209.851C209.974 120.708 210.074 120.754 210.15 120.846C210.227 120.923 210.265 121.022 210.265 121.145V128.022H212.381V130H210.219V131.748C210.219 132.239 210.196 132.668 210.15 133.036C210.104 133.404 209.997 133.734 209.828 134.025C209.522 134.562 209.115 134.914 208.609 135.083C208.103 135.267 207.482 135.359 206.746 135.359C206.67 135.359 206.57 135.351 206.447 135.336C206.325 135.336 206.194 135.328 206.056 135.313C205.796 135.267 205.665 135.137 205.665 134.922V133.933ZM212.239 130C211.994 130 211.802 129.969 211.664 129.908C211.526 129.831 211.457 129.755 211.457 129.678V128.321C211.457 128.229 211.534 128.16 211.687 128.114C211.84 128.053 212.024 128.022 212.239 128.022H222.911L222.083 126.044L221.554 124.825C221.048 123.644 220.373 122.77 219.53 122.203C218.702 121.636 217.567 121.352 216.126 121.352C216.003 121.352 215.766 121.367 215.413 121.398C215.06 121.413 214.754 121.436 214.493 121.467C214.156 121.498 213.987 121.39 213.987 121.145V120.202C213.987 120.079 214.018 119.987 214.079 119.926C214.14 119.849 214.255 119.796 214.424 119.765C214.746 119.688 215.099 119.635 215.482 119.604C215.881 119.573 216.256 119.558 216.609 119.558C217.376 119.558 218.096 119.635 218.771 119.788C219.446 119.926 220.082 120.194 220.68 120.593C221.278 120.976 221.83 121.513 222.336 122.203C222.842 122.878 223.317 123.752 223.762 124.825L224.015 125.423L224.935 127.746C225.012 127.869 225.073 127.945 225.119 127.976C225.165 128.007 225.249 128.022 225.372 128.022H225.533V130H212.239ZM216.839 115.349C216.839 115.196 216.893 115.073 217 114.981C217.107 114.889 217.23 114.843 217.368 114.843H218.38C218.518 114.843 218.633 114.889 218.725 114.981C218.832 115.073 218.886 115.196 218.886 115.349V116.591C218.886 116.729 218.832 116.844 218.725 116.936C218.633 117.028 218.51 117.074 218.357 117.074H217.368C217.215 117.074 217.084 117.028 216.977 116.936C216.885 116.844 216.839 116.729 216.839 116.591V115.349ZM224.619 128.321C224.619 128.229 224.696 128.16 224.849 128.114C225.002 128.053 225.186 128.022 225.401 128.022H227.241C227.686 128.022 227.962 127.984 228.069 127.907C228.192 127.83 228.253 127.593 228.253 127.194V113.164C228.253 113.041 228.291 112.942 228.368 112.865C228.46 112.773 228.567 112.727 228.69 112.727H229.817C229.94 112.727 230.039 112.773 230.116 112.865C230.193 112.942 230.231 113.041 230.231 113.164V126.435C230.231 126.619 230.231 126.826 230.231 127.056C230.231 127.286 230.223 127.524 230.208 127.769C230.208 128.014 230.2 128.252 230.185 128.482C230.17 128.712 230.147 128.919 230.116 129.103C230.085 129.256 230.039 129.387 229.978 129.494C229.917 129.601 229.794 129.693 229.61 129.77C229.487 129.816 229.311 129.854 229.081 129.885C228.851 129.9 228.598 129.923 228.322 129.954C228.046 129.969 227.755 129.985 227.448 130C227.157 130 226.881 130 226.62 130H225.401C225.186 130 225.002 129.977 224.849 129.931C224.696 129.87 224.619 129.785 224.619 129.678V128.321ZM234.145 113.164C234.145 113.041 234.184 112.934 234.26 112.842C234.352 112.75 234.46 112.704 234.582 112.704H235.709C235.832 112.704 235.932 112.75 236.008 112.842C236.085 112.934 236.123 113.041 236.123 113.164V129.54C236.123 129.663 236.085 129.77 236.008 129.862C235.932 129.954 235.832 130 235.709 130H234.582C234.46 130 234.352 129.954 234.26 129.862C234.184 129.77 234.145 129.663 234.145 129.54V113.164Z" fill="#02195D"/>
<path d="M9.664 158.744C9.664 158.915 9.57333 159 9.392 159H8.448C8.37333 159 8.31467 158.979 8.272 158.936C8.22933 158.883 8.19733 158.824 8.176 158.76L7.136 155.08H2.992L1.968 158.76C1.94667 158.824 1.90933 158.883 1.856 158.936C1.80267 158.979 1.744 159 1.68 159H0.736C0.554667 159 0.464 158.915 0.464 158.744C0.464 158.691 0.469333 158.653 0.48 158.632L3.44 148.216C3.504 147.971 3.59467 147.773 3.712 147.624C3.84 147.464 3.97867 147.341 4.128 147.256C4.27733 147.16 4.432 147.096 4.592 147.064C4.76267 147.021 4.92267 147 5.072 147C5.22133 147 5.376 147.016 5.536 147.048C5.696 147.08 5.85067 147.144 6 147.24C6.14933 147.325 6.28267 147.448 6.4 147.608C6.528 147.757 6.624 147.955 6.688 148.2L9.648 158.632C9.65867 158.653 9.664 158.691 9.664 158.744ZM5.376 148.552C5.32267 148.36 5.22133 148.264 5.072 148.264C4.912 148.264 4.80533 148.36 4.752 148.552L3.296 153.816H6.832L5.376 148.552ZM12.781 158.68C12.781 158.765 12.7543 158.84 12.701 158.904C12.6477 158.968 12.5783 159 12.493 159H11.661C11.5757 159 11.5063 158.968 11.453 158.904C11.3997 158.84 11.373 158.765 11.373 158.68V147.272C11.373 147.187 11.3997 147.117 11.453 147.064C11.5063 147 11.5757 146.968 11.661 146.968H12.493C12.5783 146.968 12.6477 147 12.701 147.064C12.7543 147.117 12.781 147.187 12.781 147.272V158.68ZM23.0553 158.84C23.0553 158.947 22.9859 159 22.8472 159H21.5993C21.4606 159 21.3433 158.947 21.2473 158.84L16.7353 153.352V158.68C16.7353 158.765 16.7086 158.84 16.6553 158.904C16.6019 158.968 16.5326 159 16.4473 159H15.5673C15.4819 159 15.4126 158.968 15.3593 158.904C15.3059 158.84 15.2793 158.765 15.2793 158.68V147.416C15.2793 147.331 15.3059 147.261 15.3593 147.208C15.4233 147.144 15.4979 147.112 15.5833 147.112H16.4313C16.5166 147.112 16.5859 147.144 16.6393 147.208C16.7033 147.261 16.7353 147.331 16.7353 147.416V152.584L21.3433 147.256C21.3966 147.203 21.4393 147.165 21.4713 147.144C21.5139 147.123 21.5779 147.112 21.6633 147.112H22.8153C22.9646 147.112 23.0393 147.171 23.0393 147.288C23.0393 147.352 23.0179 147.405 22.9753 147.448L18.1593 152.888L22.9753 158.648C23.0286 158.701 23.0553 158.765 23.0553 158.84ZM31.574 158.68C31.574 158.765 31.542 158.84 31.478 158.904C31.414 158.968 31.3393 159 31.254 159H30.486C30.4007 159 30.326 158.968 30.262 158.904C30.198 158.84 30.166 158.765 30.166 158.68V153.416C30.166 152.616 30.0113 152.067 29.702 151.768C29.3927 151.469 28.9767 151.32 28.454 151.32C28.326 151.32 28.1713 151.331 27.99 151.352C27.8193 151.363 27.6327 151.389 27.43 151.432C27.2273 151.464 27.0193 151.512 26.806 151.576C26.6033 151.629 26.4167 151.693 26.246 151.768V158.68C26.246 158.765 26.214 158.84 26.15 158.904C26.086 158.968 26.0113 159 25.926 159H25.142C25.0567 159 24.982 158.968 24.918 158.904C24.8647 158.84 24.838 158.765 24.838 158.68V147.288C24.838 147.203 24.8647 147.128 24.918 147.064C24.982 147 25.0567 146.968 25.142 146.968H25.942C26.0273 146.968 26.0967 147 26.15 147.064C26.214 147.128 26.246 147.203 26.246 147.288V150.584C26.63 150.413 27.046 150.291 27.494 150.216C27.9527 150.131 28.3527 150.088 28.694 150.088C29.1207 150.088 29.51 150.152 29.862 150.28C30.214 150.408 30.518 150.605 30.774 150.872C31.03 151.139 31.2273 151.485 31.366 151.912C31.5047 152.328 31.574 152.829 31.574 153.416V158.68ZM40.4803 158.68C40.4803 158.765 40.4483 158.84 40.3843 158.904C40.3309 158.968 40.2616 159 40.1763 159H39.3763C39.2909 159 39.2163 158.968 39.1523 158.904C39.0989 158.84 39.0723 158.765 39.0723 158.68V158.376C38.6243 158.621 38.2083 158.808 37.8243 158.936C37.4403 159.053 37.0083 159.112 36.5283 159.112C35.5576 159.112 34.8483 158.824 34.4003 158.248C33.9629 157.672 33.7443 156.851 33.7443 155.784V150.52C33.7443 150.435 33.7763 150.36 33.8403 150.296C33.9043 150.232 33.9789 150.2 34.0643 150.2H34.8323C34.9176 150.2 34.9923 150.232 35.0563 150.296C35.1203 150.36 35.1523 150.435 35.1523 150.52V155.784C35.1523 156.189 35.1843 156.531 35.2483 156.808C35.3229 157.075 35.4296 157.288 35.5683 157.448C35.7176 157.608 35.8989 157.725 36.1123 157.8C36.3363 157.864 36.6029 157.896 36.9123 157.896C37.2536 157.896 37.6056 157.837 37.9683 157.72C38.3309 157.603 38.6989 157.453 39.0723 157.272V150.52C39.0723 150.435 39.1043 150.36 39.1683 150.296C39.2323 150.232 39.3069 150.2 39.3923 150.2H40.1763C40.2616 150.2 40.3309 150.232 40.3843 150.296C40.4483 150.36 40.4803 150.435 40.4803 150.52V158.68ZM46.6025 151.032C46.6025 151.213 46.4905 151.304 46.2665 151.304C45.8932 151.304 45.5305 151.357 45.1785 151.464C44.8372 151.56 44.4638 151.731 44.0585 151.976V158.68C44.0585 158.765 44.0265 158.84 43.9625 158.904C43.8985 158.968 43.8238 159 43.7385 159H42.9545C42.8692 159 42.7945 158.968 42.7305 158.904C42.6772 158.84 42.6505 158.765 42.6505 158.68V150.52C42.6505 150.435 42.6772 150.36 42.7305 150.296C42.7945 150.232 42.8692 150.2 42.9545 150.2H43.7065C43.7918 150.2 43.8612 150.232 43.9145 150.296C43.9785 150.36 44.0105 150.435 44.0105 150.52V150.856C44.4158 150.579 44.7998 150.381 45.1625 150.264C45.5358 150.147 45.9038 150.088 46.2665 150.088C46.4905 150.088 46.6025 150.184 46.6025 150.376V151.032ZM53.8098 158.68C53.8098 158.765 53.7778 158.84 53.7138 158.904C53.6498 158.968 53.5751 159 53.4898 159H52.7538C52.6684 159 52.5938 158.968 52.5298 158.904C52.4658 158.84 52.4338 158.765 52.4338 158.68V158.328C52.0498 158.552 51.6551 158.739 51.2498 158.888C50.8444 159.037 50.4178 159.112 49.9698 159.112C49.6284 159.112 49.2978 159.075 48.9778 159C48.6684 158.915 48.3911 158.771 48.1458 158.568C47.9111 158.365 47.7191 158.099 47.5698 157.768C47.4311 157.437 47.3618 157.021 47.3618 156.52V156.328C47.3618 155.901 47.4258 155.528 47.5538 155.208C47.6924 154.877 47.9111 154.605 48.2098 154.392C48.5191 154.168 48.9191 154.003 49.4098 153.896C49.9004 153.789 50.5031 153.736 51.2178 153.736H52.4018V153.096C52.4018 152.424 52.2738 151.955 52.0178 151.688C51.7618 151.421 51.3191 151.288 50.6898 151.288C50.1671 151.288 49.7084 151.304 49.3138 151.336C48.9191 151.357 48.5618 151.384 48.2418 151.416H48.1618C48.0871 151.416 48.0178 151.4 47.9538 151.368C47.9004 151.336 47.8738 151.267 47.8738 151.16V150.6C47.8738 150.429 47.9858 150.328 48.2098 150.296C48.5404 150.243 48.8978 150.195 49.2818 150.152C49.6764 150.109 50.1458 150.088 50.6898 150.088C51.7991 150.088 52.5938 150.355 53.0738 150.888C53.5644 151.421 53.8098 152.157 53.8098 153.096V158.68ZM52.4018 154.744H51.2178C50.7378 154.744 50.3378 154.776 50.0178 154.84C49.6978 154.893 49.4471 154.984 49.2658 155.112C49.0844 155.229 48.9564 155.389 48.8818 155.592C48.8071 155.784 48.7698 156.024 48.7698 156.312V156.504C48.7698 157.08 48.8978 157.469 49.1538 157.672C49.4098 157.864 49.7724 157.96 50.2418 157.96C50.6151 157.96 50.9724 157.907 51.3138 157.8C51.6551 157.693 52.0178 157.533 52.4018 157.32V154.744ZM57.5946 148.472C57.5946 148.557 57.5626 148.632 57.4986 148.696C57.4346 148.76 57.36 148.792 57.2746 148.792H56.4586C56.3733 148.792 56.2986 148.76 56.2346 148.696C56.1706 148.632 56.1386 148.557 56.1386 148.472V147.192C56.1386 147.107 56.1706 147.032 56.2346 146.968C56.2986 146.904 56.3733 146.872 56.4586 146.872H57.2746C57.36 146.872 57.4346 146.904 57.4986 146.968C57.5626 147.032 57.5946 147.107 57.5946 147.192V148.472ZM57.5626 158.68C57.5626 158.765 57.5306 158.84 57.4666 158.904C57.4026 158.968 57.328 159 57.2426 159H56.4746C56.3893 159 56.3146 158.968 56.2506 158.904C56.1866 158.84 56.1546 158.765 56.1546 158.68V150.52C56.1546 150.435 56.1866 150.36 56.2506 150.296C56.3146 150.232 56.3893 150.2 56.4746 150.2H57.2426C57.328 150.2 57.4026 150.232 57.4666 150.296C57.5306 150.36 57.5626 150.435 57.5626 150.52V158.68ZM64.5398 147.704C64.5398 147.864 64.4438 147.944 64.2518 147.944H63.4838C63.1104 147.944 62.8544 148.019 62.7158 148.168C62.5771 148.317 62.5078 148.611 62.5078 149.048V150.2H64.1878C64.2731 150.2 64.3424 150.227 64.3958 150.28C64.4598 150.333 64.4918 150.403 64.4918 150.488V151.112C64.4918 151.293 64.3904 151.384 64.1878 151.384H62.5078V158.68C62.5078 158.765 62.4758 158.84 62.4118 158.904C62.3584 158.968 62.2891 159 62.2038 159H61.4198C61.3344 159 61.2598 158.968 61.1957 158.904C61.1318 158.84 61.0998 158.765 61.0998 158.68V151.384L59.5478 151.208C59.3451 151.187 59.2438 151.091 59.2438 150.92V150.488C59.2438 150.403 59.2704 150.333 59.3238 150.28C59.3878 150.227 59.4624 150.2 59.5478 150.2H61.0998V149.048C61.0998 148.621 61.1478 148.264 61.2438 147.976C61.3504 147.688 61.4998 147.459 61.6918 147.288C61.8838 147.117 62.1184 147 62.3958 146.936C62.6731 146.861 62.9878 146.824 63.3398 146.824C63.5531 146.824 63.7291 146.835 63.8678 146.856C64.0064 146.877 64.1291 146.899 64.2358 146.92C64.4384 146.973 64.5398 147.059 64.5398 147.176V147.704ZM78.5066 154.088C78.5066 154.973 78.4 155.736 78.1866 156.376C77.9733 157.005 77.6746 157.523 77.2906 157.928C76.9066 158.333 76.448 158.632 75.9146 158.824C75.392 159.016 74.816 159.112 74.1866 159.112C73.5573 159.112 72.976 159.016 72.4426 158.824C71.92 158.632 71.4666 158.333 71.0826 157.928C70.6986 157.523 70.3946 157.005 70.1706 156.376C69.9573 155.736 69.8506 154.973 69.8506 154.088V152.024C69.8506 151.139 69.9573 150.381 70.1706 149.752C70.3946 149.112 70.6986 148.589 71.0826 148.184C71.4666 147.779 71.92 147.48 72.4426 147.288C72.976 147.096 73.5573 147 74.1866 147C74.816 147 75.392 147.096 75.9146 147.288C76.448 147.48 76.9066 147.779 77.2906 148.184C77.6746 148.589 77.9733 149.112 78.1866 149.752C78.4 150.381 78.5066 151.139 78.5066 152.024V154.088ZM77.0346 152.024C77.0346 151.352 76.9653 150.781 76.8266 150.312C76.6986 149.843 76.512 149.459 76.2666 149.16C76.0213 148.861 75.7226 148.648 75.3706 148.52C75.0186 148.381 74.624 148.312 74.1866 148.312C73.7493 148.312 73.3546 148.381 73.0026 148.52C72.6506 148.648 72.3466 148.861 72.0906 149.16C71.8453 149.459 71.6533 149.843 71.5146 150.312C71.3866 150.781 71.3226 151.352 71.3226 152.024V154.088C71.3226 154.76 71.3866 155.331 71.5146 155.8C71.6533 156.269 71.8453 156.653 72.0906 156.952C72.336 157.251 72.6346 157.469 72.9866 157.608C73.3493 157.736 73.7493 157.8 74.1866 157.8C74.624 157.8 75.0186 157.736 75.3706 157.608C75.7226 157.469 76.0213 157.251 76.2666 156.952C76.512 156.653 76.6986 156.269 76.8266 155.8C76.9653 155.331 77.0346 154.76 77.0346 154.088V152.024ZM87.3248 155.192C87.3248 156.451 87.0368 157.421 86.4608 158.104C85.8848 158.776 85.0101 159.112 83.8368 159.112C83.5914 159.112 83.2928 159.096 82.9408 159.064C82.5994 159.032 82.2741 158.989 81.9648 158.936V161.832C81.9648 161.917 81.9328 161.987 81.8688 162.04C81.8154 162.104 81.7461 162.136 81.6608 162.136H80.8448C80.7594 162.136 80.6901 162.104 80.6368 162.04C80.5834 161.987 80.5568 161.917 80.5568 161.832V150.824C80.5568 150.717 80.5728 150.637 80.6048 150.584C80.6474 150.531 80.7434 150.488 80.8928 150.456C81.3194 150.349 81.7941 150.264 82.3168 150.2C82.8394 150.125 83.3461 150.088 83.8368 150.088C84.4341 150.088 84.9514 150.184 85.3888 150.376C85.8261 150.557 86.1888 150.824 86.4768 151.176C86.7648 151.517 86.9781 151.933 87.1168 152.424C87.2554 152.904 87.3248 153.443 87.3248 154.04V155.192ZM85.9168 154.04C85.9168 153.624 85.8794 153.245 85.8048 152.904C85.7408 152.563 85.6288 152.275 85.4688 152.04C85.3088 151.795 85.0954 151.608 84.8288 151.48C84.5621 151.341 84.2314 151.272 83.8368 151.272C83.4954 151.272 83.1541 151.288 82.8128 151.32C82.4714 151.352 82.1888 151.389 81.9648 151.432V157.768C82.2314 157.821 82.5461 157.864 82.9088 157.896C83.2714 157.917 83.5808 157.928 83.8368 157.928C84.2314 157.928 84.5621 157.869 84.8288 157.752C85.0954 157.624 85.3088 157.443 85.4688 157.208C85.6288 156.973 85.7408 156.685 85.8048 156.344C85.8794 156.003 85.9168 155.619 85.9168 155.192V154.04ZM95.997 154.696C95.997 154.931 95.8957 155.048 95.693 155.048H90.333V155.272C90.333 156.221 90.5197 156.893 90.893 157.288C91.2663 157.683 91.821 157.88 92.557 157.88C93.0263 157.88 93.5223 157.864 94.045 157.832C94.5783 157.8 95.0317 157.757 95.405 157.704H95.485C95.549 157.704 95.6077 157.72 95.661 157.752C95.7143 157.784 95.741 157.843 95.741 157.928V158.472C95.741 158.579 95.7197 158.664 95.677 158.728C95.6343 158.781 95.549 158.819 95.421 158.84C94.9623 158.925 94.5037 158.989 94.045 159.032C93.597 159.085 93.101 159.112 92.557 159.112C92.0983 159.112 91.6503 159.053 91.213 158.936C90.7757 158.808 90.3863 158.6 90.045 158.312C89.7143 158.013 89.4423 157.619 89.229 157.128C89.0263 156.637 88.925 156.019 88.925 155.272V153.832C88.925 152.68 89.229 151.768 89.837 151.096C90.445 150.424 91.325 150.088 92.477 150.088C93.0637 150.088 93.5757 150.179 94.013 150.36C94.4503 150.531 94.813 150.781 95.101 151.112C95.3997 151.432 95.6237 151.827 95.773 152.296C95.9223 152.755 95.997 153.267 95.997 153.832V154.696ZM94.573 153.832C94.573 152.925 94.397 152.28 94.045 151.896C93.7037 151.512 93.181 151.32 92.477 151.32C91.7837 151.32 91.2503 151.523 90.877 151.928C90.5143 152.333 90.333 152.968 90.333 153.832V153.976H94.573V153.832ZM101.868 151.032C101.868 151.213 101.756 151.304 101.532 151.304C101.159 151.304 100.796 151.357 100.444 151.464C100.103 151.56 99.7295 151.731 99.3241 151.976V158.68C99.3241 158.765 99.2921 158.84 99.2281 158.904C99.1641 158.968 99.0895 159 99.0041 159H98.2201C98.1348 159 98.0601 158.968 97.9961 158.904C97.9428 158.84 97.9161 158.765 97.9161 158.68V150.52C97.9161 150.435 97.9428 150.36 97.9961 150.296C98.0601 150.232 98.1348 150.2 98.2201 150.2H98.9721C99.0575 150.2 99.1268 150.232 99.1801 150.296C99.2441 150.36 99.2761 150.435 99.2761 150.52V150.856C99.6815 150.579 100.065 150.381 100.428 150.264C100.801 150.147 101.169 150.088 101.532 150.088C101.756 150.088 101.868 150.184 101.868 150.376V151.032ZM109.075 158.68C109.075 158.765 109.043 158.84 108.979 158.904C108.915 158.968 108.841 159 108.755 159H108.019C107.934 159 107.859 158.968 107.795 158.904C107.731 158.84 107.699 158.765 107.699 158.68V158.328C107.315 158.552 106.921 158.739 106.515 158.888C106.11 159.037 105.683 159.112 105.235 159.112C104.894 159.112 104.563 159.075 104.243 159C103.934 158.915 103.657 158.771 103.411 158.568C103.177 158.365 102.985 158.099 102.835 157.768C102.697 157.437 102.627 157.021 102.627 156.52V156.328C102.627 155.901 102.691 155.528 102.819 155.208C102.958 154.877 103.177 154.605 103.475 154.392C103.785 154.168 104.185 154.003 104.675 153.896C105.166 153.789 105.769 153.736 106.483 153.736H107.667V153.096C107.667 152.424 107.539 151.955 107.283 151.688C107.027 151.421 106.585 151.288 105.955 151.288C105.433 151.288 104.974 151.304 104.579 151.336C104.185 151.357 103.827 151.384 103.507 151.416H103.427C103.353 151.416 103.283 151.4 103.219 151.368C103.166 151.336 103.139 151.267 103.139 151.16V150.6C103.139 150.429 103.251 150.328 103.475 150.296C103.806 150.243 104.163 150.195 104.547 150.152C104.942 150.109 105.411 150.088 105.955 150.088C107.065 150.088 107.859 150.355 108.339 150.888C108.83 151.421 109.075 152.157 109.075 153.096V158.68ZM107.667 154.744H106.483C106.003 154.744 105.603 154.776 105.283 154.84C104.963 154.893 104.713 154.984 104.531 155.112C104.35 155.229 104.222 155.389 104.147 155.592C104.073 155.784 104.035 156.024 104.035 156.312V156.504C104.035 157.08 104.163 157.469 104.419 157.672C104.675 157.864 105.038 157.96 105.507 157.96C105.881 157.96 106.238 157.907 106.579 157.8C106.921 157.693 107.283 157.533 107.667 157.32V154.744ZM115.526 158.76C115.526 158.909 115.43 159 115.238 159.032C115.078 159.053 114.902 159.069 114.71 159.08C114.518 159.101 114.347 159.112 114.198 159.112C113.824 159.112 113.499 159.08 113.222 159.016C112.955 158.963 112.731 158.856 112.55 158.696C112.379 158.536 112.246 158.317 112.15 158.04C112.064 157.763 112.022 157.405 112.022 156.968V151.384L110.47 151.208C110.267 151.187 110.166 151.091 110.166 150.92V150.488C110.166 150.296 110.267 150.2 110.47 150.2H112.022V148.632C112.022 148.451 112.118 148.344 112.31 148.312L113.142 148.184H113.19C113.254 148.184 113.307 148.211 113.35 148.264C113.403 148.307 113.43 148.371 113.43 148.456V150.2H115.158C115.243 150.2 115.318 150.232 115.382 150.296C115.446 150.36 115.478 150.435 115.478 150.52V151.064C115.478 151.149 115.446 151.224 115.382 151.288C115.318 151.352 115.243 151.384 115.158 151.384H113.43V156.968C113.43 157.405 113.494 157.683 113.622 157.8C113.75 157.917 113.974 157.976 114.294 157.976H115.19C115.414 157.976 115.526 158.051 115.526 158.2V158.76ZM118.626 148.472C118.626 148.557 118.594 148.632 118.53 148.696C118.466 148.76 118.391 148.792 118.306 148.792H117.49C117.405 148.792 117.33 148.76 117.266 148.696C117.202 148.632 117.17 148.557 117.17 148.472V147.192C117.17 147.107 117.202 147.032 117.266 146.968C117.33 146.904 117.405 146.872 117.49 146.872H118.306C118.391 146.872 118.466 146.904 118.53 146.968C118.594 147.032 118.626 147.107 118.626 147.192V148.472ZM118.594 158.68C118.594 158.765 118.562 158.84 118.498 158.904C118.434 158.968 118.359 159 118.274 159H117.506C117.421 159 117.346 158.968 117.282 158.904C117.218 158.84 117.186 158.765 117.186 158.68V150.52C117.186 150.435 117.218 150.36 117.282 150.296C117.346 150.232 117.421 150.2 117.506 150.2H118.274C118.359 150.2 118.434 150.232 118.498 150.296C118.562 150.36 118.594 150.435 118.594 150.52V158.68ZM127.795 155.208C127.795 155.795 127.72 156.328 127.571 156.808C127.422 157.288 127.198 157.699 126.899 158.04C126.6 158.381 126.227 158.648 125.779 158.84C125.331 159.021 124.814 159.112 124.227 159.112C123.64 159.112 123.123 159.021 122.675 158.84C122.238 158.648 121.87 158.381 121.571 158.04C121.272 157.699 121.048 157.288 120.899 156.808C120.75 156.328 120.675 155.795 120.675 155.208V153.992C120.675 153.405 120.75 152.872 120.899 152.392C121.048 151.912 121.272 151.501 121.571 151.16C121.87 150.819 122.238 150.557 122.675 150.376C123.123 150.184 123.64 150.088 124.227 150.088C124.814 150.088 125.331 150.184 125.779 150.376C126.227 150.557 126.6 150.819 126.899 151.16C127.198 151.501 127.422 151.912 127.571 152.392C127.72 152.872 127.795 153.405 127.795 153.992V155.208ZM126.387 153.992C126.387 153.171 126.216 152.52 125.875 152.04C125.534 151.56 124.984 151.32 124.227 151.32C123.48 151.32 122.936 151.56 122.595 152.04C122.254 152.509 122.083 153.16 122.083 153.992V155.208C122.083 156.029 122.248 156.68 122.579 157.16C122.92 157.64 123.47 157.88 124.227 157.88C124.974 157.88 125.518 157.645 125.859 157.176C126.211 156.696 126.387 156.04 126.387 155.208V153.992ZM136.418 158.68C136.418 158.765 136.386 158.84 136.322 158.904C136.258 158.968 136.183 159 136.098 159H135.33C135.244 159 135.17 158.968 135.106 158.904C135.042 158.84 135.01 158.765 135.01 158.68V153.416C135.01 153.011 134.972 152.675 134.898 152.408C134.834 152.131 134.727 151.912 134.578 151.752C134.439 151.592 134.258 151.48 134.034 151.416C133.81 151.341 133.548 151.304 133.25 151.304C132.908 151.304 132.556 151.363 132.194 151.48C131.831 151.597 131.463 151.747 131.09 151.928V158.68C131.09 158.765 131.058 158.84 130.994 158.904C130.93 158.968 130.855 159 130.77 159H129.986C129.9 159 129.826 158.968 129.762 158.904C129.708 158.84 129.682 158.765 129.682 158.68V150.52C129.682 150.435 129.708 150.36 129.762 150.296C129.826 150.232 129.9 150.2 129.986 150.2H130.786C130.871 150.2 130.94 150.232 130.994 150.296C131.058 150.36 131.09 150.435 131.09 150.52V150.824C131.538 150.579 131.954 150.397 132.338 150.28C132.722 150.152 133.154 150.088 133.634 150.088C134.604 150.088 135.308 150.376 135.746 150.952C136.194 151.528 136.418 152.349 136.418 153.416V158.68ZM151.709 158.824C151.709 158.877 151.688 158.92 151.645 158.952C151.613 158.984 151.576 159 151.533 159H150.429C150.354 159 150.301 158.989 150.269 158.968C150.237 158.947 150.205 158.92 150.173 158.888L149.373 158.024C148.978 158.365 148.52 158.632 147.997 158.824C147.474 159.016 146.882 159.112 146.221 159.112C145.73 159.112 145.25 159.064 144.781 158.968C144.312 158.861 143.89 158.696 143.517 158.472C143.154 158.237 142.861 157.933 142.637 157.56C142.413 157.187 142.301 156.728 142.301 156.184V156.056C142.301 155.725 142.344 155.427 142.429 155.16C142.525 154.883 142.664 154.621 142.845 154.376C143.037 154.12 143.277 153.875 143.565 153.64C143.853 153.405 144.2 153.16 144.605 152.904L144.493 152.776C144.12 152.349 143.821 151.981 143.597 151.672C143.373 151.352 143.202 151.075 143.085 150.84C142.978 150.605 142.909 150.397 142.877 150.216C142.845 150.035 142.829 149.853 142.829 149.672V149.544C142.829 148.691 143.128 148.056 143.725 147.64C144.333 147.213 145.154 147 146.189 147C146.637 147 147.053 147.053 147.437 147.16C147.821 147.267 148.157 147.427 148.445 147.64C148.733 147.853 148.957 148.12 149.117 148.44C149.288 148.749 149.373 149.117 149.373 149.544V149.672C149.373 149.939 149.341 150.189 149.277 150.424C149.213 150.659 149.09 150.899 148.909 151.144C148.728 151.389 148.477 151.651 148.157 151.928C147.837 152.195 147.426 152.499 146.925 152.84L146.477 153.144L149.373 156.264C149.586 155.88 149.741 155.448 149.837 154.968C149.944 154.488 149.997 153.981 149.997 153.448V153.224C149.997 153.053 150.082 152.968 150.253 152.968H150.941C151.122 152.968 151.213 153.053 151.213 153.224V153.448C151.213 154.152 151.128 154.819 150.957 155.448C150.797 156.067 150.546 156.627 150.205 157.128L151.629 158.648C151.682 158.701 151.709 158.76 151.709 158.824ZM148.045 149.544C148.045 149.011 147.874 148.632 147.533 148.408C147.192 148.184 146.744 148.072 146.189 148.072C145.581 148.072 145.085 148.179 144.701 148.392C144.328 148.605 144.141 148.989 144.141 149.544V149.672C144.141 149.811 144.152 149.949 144.173 150.088C144.194 150.227 144.248 150.387 144.333 150.568C144.429 150.739 144.568 150.947 144.749 151.192C144.93 151.427 145.181 151.72 145.501 152.072L145.661 152.248L146.205 151.912C146.589 151.677 146.898 151.469 147.133 151.288C147.378 151.107 147.565 150.936 147.693 150.776C147.832 150.605 147.922 150.435 147.965 150.264C148.018 150.093 148.045 149.896 148.045 149.672V149.544ZM145.421 153.784C145.101 153.987 144.834 154.173 144.621 154.344C144.408 154.515 144.237 154.685 144.109 154.856C143.992 155.027 143.906 155.208 143.853 155.4C143.8 155.592 143.773 155.811 143.773 156.056V156.184C143.773 156.504 143.837 156.781 143.965 157.016C144.104 157.251 144.285 157.443 144.509 157.592C144.733 157.731 144.994 157.837 145.293 157.912C145.592 157.976 145.901 158.008 146.221 158.008C146.733 158.008 147.186 157.933 147.581 157.784C147.976 157.635 148.317 157.437 148.605 157.192L145.421 153.784ZM167.194 158.68C167.194 158.765 167.162 158.84 167.098 158.904C167.034 158.968 166.959 159 166.874 159H166.09C166.005 159 165.93 158.968 165.866 158.904C165.802 158.84 165.77 158.765 165.77 158.68V149.192C165.77 149.16 165.765 149.144 165.754 149.144C165.743 149.144 165.733 149.155 165.722 149.176L163.434 153.912C163.349 154.072 163.258 154.189 163.162 154.264C163.066 154.339 162.917 154.376 162.714 154.376H161.978C161.775 154.376 161.626 154.339 161.53 154.264C161.434 154.189 161.343 154.072 161.258 153.912L158.97 149.176C158.959 149.155 158.949 149.144 158.938 149.144C158.927 149.144 158.922 149.16 158.922 149.192V158.68C158.922 158.765 158.89 158.84 158.826 158.904C158.762 158.968 158.687 159 158.602 159H157.818C157.733 159 157.658 158.968 157.594 158.904C157.53 158.84 157.498 158.765 157.498 158.68V147.576C157.498 147.448 157.541 147.341 157.626 147.256C157.722 147.16 157.834 147.112 157.962 147.112H159.002C159.151 147.112 159.258 147.133 159.322 147.176C159.397 147.208 159.461 147.277 159.514 147.384L162.154 152.872C162.207 152.989 162.271 153.048 162.346 153.048C162.421 153.048 162.485 152.989 162.538 152.872L165.178 147.384C165.231 147.277 165.29 147.208 165.354 147.176C165.429 147.133 165.541 147.112 165.69 147.112H166.73C166.858 147.112 166.965 147.16 167.05 147.256C167.146 147.341 167.194 147.448 167.194 147.576V158.68ZM175.638 158.68C175.638 158.765 175.606 158.84 175.542 158.904C175.478 158.968 175.403 159 175.318 159H174.582C174.497 159 174.422 158.968 174.358 158.904C174.294 158.84 174.262 158.765 174.262 158.68V158.328C173.878 158.552 173.483 158.739 173.078 158.888C172.673 159.037 172.246 159.112 171.798 159.112C171.457 159.112 171.126 159.075 170.806 159C170.497 158.915 170.219 158.771 169.974 158.568C169.739 158.365 169.547 158.099 169.398 157.768C169.259 157.437 169.19 157.021 169.19 156.52V156.328C169.19 155.901 169.254 155.528 169.382 155.208C169.521 154.877 169.739 154.605 170.038 154.392C170.347 154.168 170.747 154.003 171.238 153.896C171.729 153.789 172.331 153.736 173.046 153.736H174.23V153.096C174.23 152.424 174.102 151.955 173.846 151.688C173.59 151.421 173.147 151.288 172.518 151.288C171.995 151.288 171.537 151.304 171.142 151.336C170.747 151.357 170.39 151.384 170.07 151.416H169.99C169.915 151.416 169.846 151.4 169.782 151.368C169.729 151.336 169.702 151.267 169.702 151.16V150.6C169.702 150.429 169.814 150.328 170.038 150.296C170.369 150.243 170.726 150.195 171.11 150.152C171.505 150.109 171.974 150.088 172.518 150.088C173.627 150.088 174.422 150.355 174.902 150.888C175.393 151.421 175.638 152.157 175.638 153.096V158.68ZM174.23 154.744H173.046C172.566 154.744 172.166 154.776 171.846 154.84C171.526 154.893 171.275 154.984 171.094 155.112C170.913 155.229 170.785 155.389 170.71 155.592C170.635 155.784 170.598 156.024 170.598 156.312V156.504C170.598 157.08 170.726 157.469 170.982 157.672C171.238 157.864 171.601 157.96 172.07 157.96C172.443 157.96 172.801 157.907 173.142 157.8C173.483 157.693 173.846 157.533 174.23 157.32V154.744ZM179.423 148.472C179.423 148.557 179.391 148.632 179.327 148.696C179.263 148.76 179.188 148.792 179.103 148.792H178.287C178.201 148.792 178.127 148.76 178.063 148.696C177.999 148.632 177.967 148.557 177.967 148.472V147.192C177.967 147.107 177.999 147.032 178.063 146.968C178.127 146.904 178.201 146.872 178.287 146.872H179.103C179.188 146.872 179.263 146.904 179.327 146.968C179.391 147.032 179.423 147.107 179.423 147.192V148.472ZM179.391 158.68C179.391 158.765 179.359 158.84 179.295 158.904C179.231 158.968 179.156 159 179.071 159H178.303C178.217 159 178.143 158.968 178.079 158.904C178.015 158.84 177.983 158.765 177.983 158.68V150.52C177.983 150.435 178.015 150.36 178.079 150.296C178.143 150.232 178.217 150.2 178.303 150.2H179.071C179.156 150.2 179.231 150.232 179.295 150.296C179.359 150.36 179.391 150.435 179.391 150.52V158.68ZM188.496 158.68C188.496 158.765 188.464 158.84 188.4 158.904C188.336 158.968 188.261 159 188.176 159H187.408C187.323 159 187.248 158.968 187.184 158.904C187.12 158.84 187.088 158.765 187.088 158.68V153.416C187.088 153.011 187.051 152.675 186.976 152.408C186.912 152.131 186.805 151.912 186.656 151.752C186.517 151.592 186.336 151.48 186.112 151.416C185.888 151.341 185.627 151.304 185.328 151.304C184.987 151.304 184.635 151.363 184.272 151.48C183.909 151.597 183.541 151.747 183.168 151.928V158.68C183.168 158.765 183.136 158.84 183.072 158.904C183.008 158.968 182.933 159 182.848 159H182.064C181.979 159 181.904 158.968 181.84 158.904C181.787 158.84 181.76 158.765 181.76 158.68V150.52C181.76 150.435 181.787 150.36 181.84 150.296C181.904 150.232 181.979 150.2 182.064 150.2H182.864C182.949 150.2 183.019 150.232 183.072 150.296C183.136 150.36 183.168 150.435 183.168 150.52V150.824C183.616 150.579 184.032 150.397 184.416 150.28C184.8 150.152 185.232 150.088 185.712 150.088C186.683 150.088 187.387 150.376 187.824 150.952C188.272 151.528 188.496 152.349 188.496 153.416V158.68ZM195.026 158.76C195.026 158.909 194.93 159 194.738 159.032C194.578 159.053 194.402 159.069 194.21 159.08C194.018 159.101 193.847 159.112 193.698 159.112C193.324 159.112 192.999 159.08 192.722 159.016C192.455 158.963 192.231 158.856 192.05 158.696C191.879 158.536 191.746 158.317 191.65 158.04C191.564 157.763 191.522 157.405 191.522 156.968V151.384L189.97 151.208C189.767 151.187 189.666 151.091 189.666 150.92V150.488C189.666 150.296 189.767 150.2 189.97 150.2H191.522V148.632C191.522 148.451 191.618 148.344 191.81 148.312L192.642 148.184H192.69C192.754 148.184 192.807 148.211 192.85 148.264C192.903 148.307 192.93 148.371 192.93 148.456V150.2H194.658C194.743 150.2 194.818 150.232 194.882 150.296C194.946 150.36 194.978 150.435 194.978 150.52V151.064C194.978 151.149 194.946 151.224 194.882 151.288C194.818 151.352 194.743 151.384 194.658 151.384H192.93V156.968C192.93 157.405 192.994 157.683 193.122 157.8C193.25 157.917 193.474 157.976 193.794 157.976H194.69C194.914 157.976 195.026 158.051 195.026 158.2V158.76ZM203.294 154.696C203.294 154.931 203.193 155.048 202.99 155.048H197.63V155.272C197.63 156.221 197.817 156.893 198.19 157.288C198.563 157.683 199.118 157.88 199.854 157.88C200.323 157.88 200.819 157.864 201.342 157.832C201.875 157.8 202.329 157.757 202.702 157.704H202.782C202.846 157.704 202.905 157.72 202.958 157.752C203.011 157.784 203.038 157.843 203.038 157.928V158.472C203.038 158.579 203.017 158.664 202.974 158.728C202.931 158.781 202.846 158.819 202.718 158.84C202.259 158.925 201.801 158.989 201.342 159.032C200.894 159.085 200.398 159.112 199.854 159.112C199.395 159.112 198.947 159.053 198.51 158.936C198.073 158.808 197.683 158.6 197.342 158.312C197.011 158.013 196.739 157.619 196.526 157.128C196.323 156.637 196.222 156.019 196.222 155.272V153.832C196.222 152.68 196.526 151.768 197.134 151.096C197.742 150.424 198.622 150.088 199.774 150.088C200.361 150.088 200.873 150.179 201.31 150.36C201.747 150.531 202.11 150.781 202.398 151.112C202.697 151.432 202.921 151.827 203.07 152.296C203.219 152.755 203.294 153.267 203.294 153.832V154.696ZM201.87 153.832C201.87 152.925 201.694 152.28 201.342 151.896C201.001 151.512 200.478 151.32 199.774 151.32C199.081 151.32 198.547 151.523 198.174 151.928C197.811 152.333 197.63 152.968 197.63 153.832V153.976H201.87V153.832ZM211.949 158.68C211.949 158.765 211.917 158.84 211.853 158.904C211.789 158.968 211.714 159 211.629 159H210.861C210.776 159 210.701 158.968 210.637 158.904C210.573 158.84 210.541 158.765 210.541 158.68V153.416C210.541 153.011 210.504 152.675 210.429 152.408C210.365 152.131 210.258 151.912 210.109 151.752C209.97 151.592 209.789 151.48 209.565 151.416C209.341 151.341 209.08 151.304 208.781 151.304C208.44 151.304 208.088 151.363 207.725 151.48C207.362 151.597 206.994 151.747 206.621 151.928V158.68C206.621 158.765 206.589 158.84 206.525 158.904C206.461 158.968 206.386 159 206.301 159H205.517C205.432 159 205.357 158.968 205.293 158.904C205.24 158.84 205.213 158.765 205.213 158.68V150.52C205.213 150.435 205.24 150.36 205.293 150.296C205.357 150.232 205.432 150.2 205.517 150.2H206.317C206.402 150.2 206.472 150.232 206.525 150.296C206.589 150.36 206.621 150.435 206.621 150.52V150.824C207.069 150.579 207.485 150.397 207.869 150.28C208.253 150.152 208.685 150.088 209.165 150.088C210.136 150.088 210.84 150.376 211.277 150.952C211.725 151.528 211.949 152.349 211.949 153.416V158.68ZM220.247 158.68C220.247 158.765 220.215 158.84 220.151 158.904C220.087 158.968 220.013 159 219.927 159H219.191C219.106 159 219.031 158.968 218.967 158.904C218.903 158.84 218.871 158.765 218.871 158.68V158.328C218.487 158.552 218.093 158.739 217.687 158.888C217.282 159.037 216.855 159.112 216.407 159.112C216.066 159.112 215.735 159.075 215.415 159C215.106 158.915 214.829 158.771 214.583 158.568C214.349 158.365 214.157 158.099 214.007 157.768C213.869 157.437 213.799 157.021 213.799 156.52V156.328C213.799 155.901 213.863 155.528 213.991 155.208C214.13 154.877 214.349 154.605 214.647 154.392C214.957 154.168 215.357 154.003 215.847 153.896C216.338 153.789 216.941 153.736 217.655 153.736H218.839V153.096C218.839 152.424 218.711 151.955 218.455 151.688C218.199 151.421 217.757 151.288 217.127 151.288C216.605 151.288 216.146 151.304 215.751 151.336C215.357 151.357 214.999 151.384 214.679 151.416H214.599C214.525 151.416 214.455 151.4 214.391 151.368C214.338 151.336 214.311 151.267 214.311 151.16V150.6C214.311 150.429 214.423 150.328 214.647 150.296C214.978 150.243 215.335 150.195 215.719 150.152C216.114 150.109 216.583 150.088 217.127 150.088C218.237 150.088 219.031 150.355 219.511 150.888C220.002 151.421 220.247 152.157 220.247 153.096V158.68ZM218.839 154.744H217.655C217.175 154.744 216.775 154.776 216.455 154.84C216.135 154.893 215.885 154.984 215.703 155.112C215.522 155.229 215.394 155.389 215.319 155.592C215.245 155.784 215.207 156.024 215.207 156.312V156.504C215.207 157.08 215.335 157.469 215.591 157.672C215.847 157.864 216.21 157.96 216.679 157.96C217.053 157.96 217.41 157.907 217.751 157.8C218.093 157.693 218.455 157.533 218.839 157.32V154.744ZM229.152 158.68C229.152 158.765 229.12 158.84 229.056 158.904C228.992 158.968 228.917 159 228.832 159H228.064C227.979 159 227.904 158.968 227.84 158.904C227.776 158.84 227.744 158.765 227.744 158.68V153.416C227.744 153.011 227.707 152.675 227.632 152.408C227.568 152.131 227.461 151.912 227.312 151.752C227.173 151.592 226.992 151.48 226.768 151.416C226.544 151.341 226.283 151.304 225.984 151.304C225.643 151.304 225.291 151.363 224.928 151.48C224.565 151.597 224.197 151.747 223.824 151.928V158.68C223.824 158.765 223.792 158.84 223.728 158.904C223.664 158.968 223.589 159 223.504 159H222.72C222.635 159 222.56 158.968 222.496 158.904C222.443 158.84 222.416 158.765 222.416 158.68V150.52C222.416 150.435 222.443 150.36 222.496 150.296C222.56 150.232 222.635 150.2 222.72 150.2H223.52C223.605 150.2 223.675 150.232 223.728 150.296C223.792 150.36 223.824 150.435 223.824 150.52V150.824C224.272 150.579 224.688 150.397 225.072 150.28C225.456 150.152 225.888 150.088 226.368 150.088C227.339 150.088 228.043 150.376 228.48 150.952C228.928 151.528 229.152 152.349 229.152 153.416V158.68ZM236.762 158.584C236.762 158.691 236.741 158.771 236.698 158.824C236.656 158.877 236.57 158.915 236.442 158.936C236.176 158.989 235.866 159.032 235.514 159.064C235.173 159.096 234.816 159.112 234.442 159.112C233.898 159.112 233.413 159.021 232.986 158.84C232.57 158.648 232.213 158.387 231.914 158.056C231.626 157.715 231.408 157.304 231.258 156.824C231.109 156.344 231.034 155.811 231.034 155.224V153.976C231.034 153.389 231.109 152.856 231.258 152.376C231.408 151.896 231.626 151.491 231.914 151.16C232.202 150.819 232.56 150.557 232.986 150.376C233.413 150.184 233.898 150.088 234.442 150.088C234.816 150.088 235.173 150.104 235.514 150.136C235.866 150.168 236.176 150.211 236.442 150.264C236.57 150.285 236.656 150.323 236.698 150.376C236.741 150.419 236.762 150.499 236.762 150.616V151.192C236.762 151.277 236.736 151.341 236.682 151.384C236.629 151.416 236.565 151.432 236.49 151.432H236.426C236.074 151.389 235.754 151.363 235.466 151.352C235.178 151.331 234.837 151.32 234.442 151.32C233.802 151.32 233.306 151.539 232.954 151.976C232.613 152.403 232.442 153.069 232.442 153.976V155.224C232.442 156.131 232.613 156.803 232.954 157.24C233.296 157.667 233.792 157.88 234.442 157.88C234.837 157.88 235.178 157.875 235.466 157.864C235.754 157.843 236.074 157.811 236.426 157.768H236.49C236.565 157.768 236.629 157.789 236.682 157.832C236.736 157.864 236.762 157.923 236.762 158.008V158.584ZM245.341 154.696C245.341 154.931 245.239 155.048 245.037 155.048H239.677V155.272C239.677 156.221 239.863 156.893 240.237 157.288C240.61 157.683 241.165 157.88 241.901 157.88C242.37 157.88 242.866 157.864 243.389 157.832C243.922 157.8 244.375 157.757 244.749 157.704H244.829C244.893 157.704 244.951 157.72 245.005 157.752C245.058 157.784 245.085 157.843 245.085 157.928V158.472C245.085 158.579 245.063 158.664 245.021 158.728C244.978 158.781 244.893 158.819 244.765 158.84C244.306 158.925 243.847 158.989 243.389 159.032C242.941 159.085 242.445 159.112 241.901 159.112C241.442 159.112 240.994 159.053 240.557 158.936C240.119 158.808 239.73 158.6 239.389 158.312C239.058 158.013 238.786 157.619 238.573 157.128C238.37 156.637 238.269 156.019 238.269 155.272V153.832C238.269 152.68 238.573 151.768 239.181 151.096C239.789 150.424 240.669 150.088 241.821 150.088C242.407 150.088 242.919 150.179 243.357 150.36C243.794 150.531 244.157 150.781 244.445 151.112C244.743 151.432 244.967 151.827 245.117 152.296C245.266 152.755 245.341 153.267 245.341 153.832V154.696ZM243.917 153.832C243.917 152.925 243.741 152.28 243.389 151.896C243.047 151.512 242.525 151.32 241.821 151.32C241.127 151.32 240.594 151.523 240.221 151.928C239.858 152.333 239.677 152.968 239.677 153.832V153.976H243.917V153.832Z" fill="#02195D"/>
</svg>
